<svg id="Capa_1" enable-background="new 0 0 512 512" height="512" viewBox="0 0 512 512" width="512" xmlns="http://www.w3.org/2000/svg"><path d="m406 212h-15v-47c0-8.28-6.72-15-15-15l-120 9.72-120 9.72c-8.28 0-15 6.72-15 15v282.56c0 24.81 20.19 45 45 45h180c24.81 0 45-20.19 45-45v-15h15c41.36 0 75-33.64 75-75v-90c0-41.36-33.64-75-75-75zm45 165c0 24.81-20.19 45-45 45h-15v-180h15c24.81 0 45 20.19 45 45z" fill="#ffda2d"/><path d="m406 212h-15v-47c0-8.28-6.72-15-15-15l-120 9.72v352.28h90c24.81 0 45-20.19 45-45v-15h15c41.36 0 75-33.64 75-75v-90c0-41.36-33.64-75-75-75zm45 165c0 24.81-20.19 45-45 45h-15v-180h15c24.81 0 45 20.19 45 45z" fill="#fdbf00"/><path d="m316 422c-8.284 0-15-6.716-15-15v-120c0-8.284 6.716-15 15-15s15 6.716 15 15v120c0 8.284-6.716 15-15 15z" fill="#ff9100"/><path d="m271 287v120c0 8.28-6.72 15-15 15s-15-6.72-15-15v-120c0-8.28 6.72-15 15-15s15 6.72 15 15z" fill="#fdbf00"/><path d="m271 287v120c0 8.28-6.72 15-15 15v-150c8.28 0 15 6.72 15 15z" fill="#ff9100"/><path d="m196 422c-8.284 0-15-6.716-15-15v-120c0-8.284 6.716-15 15-15s15 6.716 15 15v120c0 8.284-6.716 15-15 15z" fill="#fdbf00"/><path d="m358.44 60.06c-7.45-21.11-29.14-33.12-49.77-29.4-13.69-15.61-32.29-25.97-52.67-29.4-4.91-.83-9.93-1.26-15-1.26-26.12 0-50.68 11.29-67.67 30.66-20.67-3.72-42.34 8.33-49.78 29.4-33.83-1.57-62.55 25.75-62.55 59.94v38.23c-18.3 10.58-30 30.24-30 51.77 0 33.08 26.92 60 60 60s60-26.92 60-60v-15c0-8.27 6.73-15 15-15 8.04 0 15.1 6.35 15 14.45-.3 25.09 19.91 45.55 45 45.55 11.54 0 22.05-4.33 30-11.44 9.34-8.36 15.16-20.56 15-34.11-.11-8.055 6.912-14.45 15-14.45h75c17.58-.3 32.58-7.41 43.19-18.39 10.6-10.97 16.81-25.83 16.81-41.61 0-33.95-28.34-61.38-62.56-59.94z" fill="#fff7cc"/><path d="m421 120c0 15.78-6.21 30.64-16.81 41.61-10.61 10.98-25.61 18.09-43.19 18.39h-75c-8.087 0-15.11 6.395-15 14.45.16 13.55-5.66 25.75-15 34.11v-227.3c20.38 3.43 38.98 13.79 52.67 29.4 20.63-3.72 42.32 8.29 49.77 29.4 34.22-1.44 62.56 25.99 62.56 59.94z" fill="#ffe6b3"/></svg>