<svg height="512pt" viewBox="0 -62 512 512" width="512pt" xmlns="http://www.w3.org/2000/svg"><path d="m99.710938 108.453125c-4.148438 0-7.507813-3.359375-7.507813-7.507813v-71.621093c0-4.148438 3.359375-7.507813 7.507813-7.507813 4.144531 0 7.503906 3.359375 7.503906 7.507813v71.621093c0 4.148438-3.359375 7.507813-7.503906 7.507813zm0 0" fill="#7ca1b1"/><path d="m35.148438 92.9375h129.121093v235.699219h-129.121093zm0 0" fill="#a8d3d8"/><path d="m121.378906 92.9375h42.890625v235.699219h-42.890625zm0 0" fill="#8ebac5"/><path d="m412.289062 108.453125c-4.144531 0-7.503906-3.359375-7.503906-7.507813v-71.621093c0-4.148438 3.359375-7.507813 7.503906-7.507813 4.148438 0 7.507813 3.359375 7.507813 7.507813v71.621093c0 4.148438-3.359375 7.507813-7.507813 7.507813zm0 0" fill="#7ca1b1"/><path d="m347.730469 92.9375h129.121093v235.699219h-129.121093zm0 0" fill="#a8d3d8"/><g fill="#8ebac5"><path d="m433.960938 92.9375h42.890624v235.699219h-42.890624zm0 0"/><path d="m191.910156 100.445312h-184.402344c-4.148437 0-7.507812-3.359374-7.507812-7.507812 0-4.144531 3.359375-7.507812 7.507812-7.507812h184.402344c4.148438 0 7.507813 3.359374 7.507813 7.507812s-3.359375 7.507812-7.507813 7.507812zm0 0"/><path d="m191.910156 126.578125h-184.402344c-4.148437 0-7.507812-3.359375-7.507812-7.507813 0-4.144531 3.359375-7.507812 7.507812-7.507812h184.402344c4.148438 0 7.507813 3.363281 7.507813 7.507812 0 4.148438-3.359375 7.507813-7.507813 7.507813zm0 0"/><path d="m191.910156 152.710938h-184.402344c-4.148437 0-7.507812-3.359376-7.507812-7.507813 0-4.144531 3.359375-7.507813 7.507812-7.507813h184.402344c4.148438 0 7.507813 3.363282 7.507813 7.507813 0 4.148437-3.359375 7.507813-7.507813 7.507813zm0 0"/><path d="m191.910156 178.84375h-184.402344c-4.148437 0-7.507812-3.359375-7.507812-7.507812 0-4.148438 3.359375-7.507813 7.507812-7.507813h184.402344c4.148438 0 7.507813 3.359375 7.507813 7.507813 0 4.148437-3.359375 7.507812-7.507813 7.507812zm0 0"/><path d="m191.910156 204.976562h-184.402344c-4.148437 0-7.507812-3.359374-7.507812-7.507812 0-4.144531 3.359375-7.503906 7.507812-7.503906h184.402344c4.148438 0 7.507813 3.359375 7.507813 7.503906 0 4.148438-3.359375 7.507812-7.507813 7.507812zm0 0"/><path d="m191.910156 231.109375h-184.402344c-4.148437 0-7.507812-3.359375-7.507812-7.507813 0-4.144531 3.359375-7.503906 7.507812-7.503906h184.402344c4.148438 0 7.507813 3.359375 7.507813 7.503906 0 4.148438-3.359375 7.507813-7.507813 7.507813zm0 0"/><path d="m191.910156 257.242188h-184.402344c-4.148437 0-7.507812-3.359376-7.507812-7.507813 0-4.144531 3.359375-7.503906 7.507812-7.503906h184.402344c4.148438 0 7.507813 3.359375 7.507813 7.503906 0 4.148437-3.359375 7.507813-7.507813 7.507813zm0 0"/><path d="m191.910156 283.375h-184.402344c-4.148437 0-7.507812-3.359375-7.507812-7.507812 0-4.144532 3.359375-7.503907 7.507812-7.503907h184.402344c4.148438 0 7.507813 3.359375 7.507813 7.503907 0 4.148437-3.359375 7.507812-7.507813 7.507812zm0 0"/><path d="m191.910156 310.550781h-184.402344c-4.148437 0-7.507812-3.363281-7.507812-7.507812 0-4.148438 3.359375-7.507813 7.507812-7.507813h184.402344c4.148438 0 7.507813 3.359375 7.507813 7.507813 0 4.144531-3.359375 7.507812-7.507813 7.507812zm0 0"/><path d="m191.910156 336.683594h-184.402344c-4.148437 0-7.507812-3.359375-7.507812-7.507813 0-4.148437 3.359375-7.507812 7.507812-7.507812h184.402344c4.148438 0 7.507813 3.359375 7.507813 7.507812 0 4.148438-3.359375 7.507813-7.507813 7.507813zm0 0"/><path d="m504.492188 100.445312h-184.402344c-4.148438 0-7.507813-3.359374-7.507813-7.507812 0-4.144531 3.359375-7.507812 7.507813-7.507812h184.402344c4.148437 0 7.507812 3.359374 7.507812 7.507812s-3.359375 7.507812-7.507812 7.507812zm0 0"/><path d="m504.492188 126.578125h-184.402344c-4.148438 0-7.507813-3.359375-7.507813-7.507813 0-4.144531 3.359375-7.507812 7.507813-7.507812h184.402344c4.148437 0 7.507812 3.363281 7.507812 7.507812 0 4.148438-3.359375 7.507813-7.507812 7.507813zm0 0"/><path d="m504.492188 152.710938h-184.402344c-4.148438 0-7.507813-3.359376-7.507813-7.507813 0-4.144531 3.359375-7.507813 7.507813-7.507813h184.402344c4.148437 0 7.507812 3.363282 7.507812 7.507813 0 4.148437-3.359375 7.507813-7.507812 7.507813zm0 0"/><path d="m504.492188 178.84375h-184.402344c-4.148438 0-7.507813-3.359375-7.507813-7.507812 0-4.148438 3.359375-7.507813 7.507813-7.507813h184.402344c4.148437 0 7.507812 3.359375 7.507812 7.507813 0 4.148437-3.359375 7.507812-7.507812 7.507812zm0 0"/><path d="m504.492188 204.976562h-184.402344c-4.148438 0-7.507813-3.359374-7.507813-7.507812 0-4.144531 3.359375-7.503906 7.507813-7.503906h184.402344c4.148437 0 7.507812 3.359375 7.507812 7.503906 0 4.148438-3.359375 7.507812-7.507812 7.507812zm0 0"/><path d="m504.492188 231.109375h-184.402344c-4.148438 0-7.507813-3.359375-7.507813-7.507813 0-4.144531 3.359375-7.503906 7.507813-7.503906h184.402344c4.148437 0 7.507812 3.359375 7.507812 7.503906 0 4.148438-3.359375 7.507813-7.507812 7.507813zm0 0"/><path d="m504.492188 257.242188h-184.402344c-4.148438 0-7.507813-3.359376-7.507813-7.507813 0-4.144531 3.359375-7.503906 7.507813-7.503906h184.402344c4.148437 0 7.507812 3.359375 7.507812 7.503906 0 4.148437-3.359375 7.507813-7.507812 7.507813zm0 0"/><path d="m504.492188 283.375h-184.402344c-4.148438 0-7.507813-3.359375-7.507813-7.507812 0-4.144532 3.359375-7.503907 7.507813-7.503907h184.402344c4.148437 0 7.507812 3.359375 7.507812 7.503907 0 4.148437-3.359375 7.507812-7.507812 7.507812zm0 0"/><path d="m504.492188 310.550781h-184.402344c-4.148438 0-7.507813-3.363281-7.507813-7.507812 0-4.148438 3.359375-7.507813 7.507813-7.507813h184.402344c4.148437 0 7.507812 3.359375 7.507812 7.507813 0 4.144531-3.359375 7.507812-7.507812 7.507812zm0 0"/><path d="m504.492188 336.683594h-184.402344c-4.148438 0-7.507813-3.359375-7.507813-7.507813 0-4.148437 3.359375-7.507812 7.507813-7.507812h184.402344c4.148437 0 7.507812 3.359375 7.507812 7.507812 0 4.148438-3.359375 7.507813-7.507812 7.507813zm0 0"/></g><path d="m467.585938 46.539062h-424.453126c-4.410156 0-7.984374-3.574218-7.984374-7.984374v-30.570313c0-4.410156 3.574218-7.984375 7.984374-7.984375h424.453126c4.410156 0 7.984374 3.574219 7.984374 7.984375v30.570313c0 4.410156-3.574218 7.984374-7.984374 7.984374zm0 0" fill="#7ca1b1"/><path d="m467.578125 0h-33.164063v21.496094c0 4.414062-3.578124 7.992187-7.992187 7.992187h-391.273437v9.058594c0 4.414063 3.578124 7.992187 7.992187 7.992187h424.4375c4.414063 0 7.992187-3.578124 7.992187-7.992187v-30.554687c0-4.414063-3.578124-7.992188-7.992187-7.992188zm0 0" fill="#678d98"/><path d="m189.742188 388.8125h-36.046876c-4.695312 0-8.5-3.804688-8.5-8.5v-34.902344h53.046876v34.902344c0 4.695312-3.804688 8.5-8.5 8.5zm0 0" fill="#5a5a5a"/><path d="m181.117188 345.410156v34.898438c0 4.699218-3.808594 8.507812-8.507813 8.507812h17.125c4.699219 0 8.507813-3.808594 8.507813-8.507812v-34.898438zm0 0" fill="#444"/><path d="m357.003906 388.8125h-36.050781c-4.691406 0-8.5-3.804688-8.5-8.5v-34.902344h53.050781v34.902344c0 4.695312-3.808594 8.5-8.5 8.5zm0 0" fill="#5a5a5a"/><path d="m348.375 345.410156v34.898438c0 4.699218-3.808594 8.507812-8.507812 8.507812h17.125c4.699218 0 8.507812-3.808594 8.507812-8.507812v-34.898438zm0 0" fill="#444"/><path d="m329.335938 145.375h-147.976563c-12.082031 0-23.144531 6.765625-28.648437 17.515625l-27.640626 53.988281c-3.945312 7.707032-6.003906 16.242188-6.003906 24.898438v101.308594c0 7.507812 6.085938 13.589843 13.589844 13.589843h245.382812c7.503907 0 13.589844-6.082031 13.589844-13.589843v-101.308594c0-8.65625-2.058594-17.191406-6.003906-24.898438l-27.640625-53.988281c-5.503906-10.75-16.566406-17.515625-28.648437-17.515625zm0 0" fill="#00915d"/><path d="m385.625 216.878906-27.640625-53.988281c-5.503906-10.75-16.566406-17.515625-28.648437-17.515625h-48.578126c12.078126 0 23.140626 6.765625 28.648438 17.515625l27.640625 53.988281c3.941406 7.707032 6 16.242188 6 24.898438v101.308594c0 7.507812-6.082031 13.589843-13.585937 13.589843h48.578124c7.503907 0 13.589844-6.082031 13.589844-13.589843v-101.308594c0-8.65625-2.058594-17.191406-6.003906-24.898438zm0 0" fill="#007b4e"/><path d="m359.375 267v54.664062c0 1.65625 1.34375 3 3 3h13.058594c8.945312 0 16.195312-7.25 16.195312-16.191406v-54.664062c0-1.65625-1.34375-3-3-3h-13.0625c-8.941406 0-16.191406 7.25-16.191406 16.191406zm0 0" fill="#e7e7e7"/><path d="m151.320312 267v54.664062c0 1.65625-1.34375 3-3 3h-13.058593c-8.945313 0-16.195313-7.25-16.195313-16.191406v-54.664062c0-1.65625 1.34375-3 3-3h13.0625c8.941406 0 16.191406 7.25 16.191406 16.191406zm0 0" fill="#e7e7e7"/><path d="m355.550781 217.785156-17.234375-33.660156c-4.449218-8.691406-13.394531-14.160156-23.160156-14.160156h-119.617188c-9.765624 0-18.710937 5.46875-23.160156 14.160156l-17.230468 33.664062c-1.53125 2.984376.636718 6.535157 3.996093 6.535157h192.410157c3.355468 0 5.523437-3.550781 3.996093-6.539063zm0 0" fill="#d5f3f7"/><path d="m303.285156 184.125 20.578125 40.199219h27.6875c3.355469 0 5.527344-3.550781 3.996094-6.535157l-17.230469-33.664062c-4.453125-8.691406-13.394531-14.160156-23.160156-14.160156h-35.03125c9.765625 0 18.710938 5.46875 23.160156 14.160156zm0 0" fill="#a7e8f1"/><path d="m295.144531 300.234375h-79.589843c-2.621094 0-4.746094-2.121094-4.746094-4.742187v-19.527344c0-2.621094 2.125-4.746094 4.746094-4.746094h79.589843c2.621094 0 4.742188 2.125 4.742188 4.746094v19.527344c0 2.617187-2.125 4.742187-4.742188 4.742187zm0 0" fill="#1fb480"/><path d="m295.136719 271.21875h-12.566407c2.625 0 4.75 2.125 4.75 4.75v19.519531c0 2.621094-2.125 4.746094-4.75 4.746094h12.566407c2.625 0 4.75-2.125 4.75-4.746094v-19.519531c0-2.625-2.125-4.75-4.75-4.75zm0 0" fill="#00a86d"/><path d="m359.378906 289.628906v32.03125c0 1.660156 1.34375 3.003906 3 3.003906h13.042969c8.949219 0 16.207031-7.253906 16.207031-16.203124v-18.832032zm0 0" fill="#ff6930"/><path d="m119.066406 289.628906v18.828125c0 8.953125 7.257813 16.207031 16.207032 16.207031h13.042968c1.65625 0 3.003906-1.34375 3.003906-3.003906v-32.03125zm0 0" fill="#ff6930"/><path d="m388.625 250.808594h-13.042969c-.707031 0-1.398437.0625-2.082031.148437 1.222656.382813 2.113281 1.507813 2.113281 2.855469v54.644531c0 8.242188-6.160156 15.035157-14.121093 16.058594.28125.089844.574218.148437.886718.148437h13.042969c8.949219 0 16.207031-7.253906 16.207031-16.203124v-54.648438c0-1.660156-1.347656-3.003906-3.003906-3.003906zm0 0" fill="#cecece"/><path d="m135.113281 250.808594h-13.042969c-.308593 0-.605468.0625-.886718.148437 7.964844 1.027344 14.121094 7.816407 14.121094 16.058594v54.644531c0 1.347656-.894532 2.472656-2.113282 2.855469.683594.085937 1.375.148437 2.082032.148437h13.042968c1.660156 0 3.003906-1.34375 3.003906-3.003906v-54.644531c0-8.949219-7.257812-16.207031-16.207031-16.207031zm0 0" fill="#cecece"/><path d="m375.613281 289.628906v18.828125c0 8.242188-6.160156 15.03125-14.121093 16.058594.28125.089844.574218.148437.886718.148437h13.042969c8.949219 0 16.207031-7.253906 16.207031-16.203124v-18.832032zm0 0" fill="#ff5426"/><path d="m135.304688 289.628906v32.03125c0 1.347656-.894532 2.476563-2.113282 2.855469.683594.089844 1.375.148437 2.082032.148437h13.042968c1.660156 0 3.003906-1.34375 3.003906-3.003906v-32.03125zm0 0" fill="#ff5426"/></svg>