<svg height="512pt" viewBox="0 -1 512 512" width="512pt" xmlns="http://www.w3.org/2000/svg"><path d="m180.0625 0h151.875l-36.765625 430.945312c-10.886719-3.167968-23.613281-4.996093-37.207031-4.996093s-30.25 1.816406-41.136719 4.996093" fill="#343c3f"/><path d="m216.839844 230.839844v278.789062c-66.738282-7.105468-89.339844-30.972656-89.339844-30.972656v-301.824219l-1.179688 4.261719-63.4375 229.28125c-40.414062 10.480469-62.8710932-16.46875-62.8710932-16.46875 6.2695312-137.914062 50.3359372-260.09375 64.5039062-296.152344 2.738281-7 4.355469-10.753906 4.355469-10.753906 1.066406-1.066406 2.144531-2.109375 3.238281-3.144531 35.976563-33.949219 88.972656-52.808594 88.972656-52.808594l29.855469-10.074219" fill="#f0c398"/><path d="m295.175781 230.839844v278.789062c66.734375-7.105468 89.335938-30.972656 89.335938-30.972656v-301.824219l1.183593 4.261719 63.433594 229.28125c40.417969 10.480469 62.871094-16.46875 62.871094-16.46875-6.269531-137.914062-50.332031-260.09375-64.5-296.152344-2.738281-7-4.359375-10.753906-4.359375-10.753906-1.066406-1.066406-2.140625-2.109375-3.238281-3.144531-35.976563-33.949219-88.972656-52.808594-88.972656-52.808594l-29.851563-10.074219" fill="#f0c398"/><g fill="#d89d6c"><path d="m74.910156 366.921875-12.027344 43.449219c-40.429687 10.480468-62.882812-16.46875-62.882812-16.46875.710938-15.640625 1.914062-31.074219 3.488281-46.207032 18.914063 18.652344 52.539063 18.652344 70.898438 18.652344zm0 0"/><path d="m190.820312 31.046875-5.777343 28.398437c-54.660157 18.925782-100.613281 39.351563-113.894531 108.796876-13.269532 69.441406-52.148438 239.113281-52.148438 239.113281-12.425781-5.582031-18.9882812-13.460938-18.9882812-13.460938 7.4843752-164.671875 68.8593752-306.894531 68.8593752-306.894531 35.933594-35.933594 92.210937-55.953125 92.210937-55.953125l2.773438-.9375zm0 0"/><path d="m164.082031 184.582031v313.875c-26.507812-9.183593-36.570312-19.800781-36.570312-19.800781v-301.835938l-.011719.042969v-.042969c0-24.765624-10.050781-47.917968-10.050781-47.917968s46.632812 6.394531 46.632812 55.679687zm0 0"/><path d="m478.761719 411.773438-.042969.019531c-8.398438 1.507812-18.292969 1.496093-29.589844-1.429688l-63.433594-229.269531-1.183593-4.273438c0-.441406 0-.867187.023437-1.308593.332032-2.089844 3.183594-18.859375 12.378906-38.742188l7.347657 24.667969zm0 0"/><path d="m437.089844 366.921875 12.027344 43.449219c40.425781 10.480468 62.878906-16.46875 62.878906-16.46875-.710938-15.640625-1.910156-31.074219-3.488282-46.207032-18.914062 18.652344-52.539062 18.652344-70.898437 18.652344zm0 0"/></g><path d="m491.886719 387.792969c-.511719 0-1.023438-.042969-1.535157-.144531-.492187-.105469-.996093-.25-1.464843-.449219s-.929688-.441407-1.347657-.722657c-.429687-.28125-.835937-.617187-1.191406-.972656-.367187-.363281-.6875-.761718-.980468-1.191406-.285157-.425781-.523438-.875-.722657-1.355469-.1875-.472656-.34375-.960937-.4375-1.464843-.105469-.5-.15625-1.023438-.15625-1.523438 0-.511719.050781-1.035156.15625-1.539062.09375-.5.25-.992188.4375-1.460938.199219-.480469.441407-.929688.722657-1.359375.292968-.425781.613281-.824219.980468-1.191406.355469-.355469.761719-.6875 1.191406-.96875.417969-.285157.878907-.523438 1.347657-.722657.46875-.199218.972656-.34375 1.464843-.449218 2.546876-.511719 5.253907.324218 7.070313 2.140625.367187.367187.691406.765625.972656 1.191406.292969.429687.535157.878906.722657 1.359375.195312.46875.355468.960938.449218 1.460938.105469.503906.15625 1.027343.15625 1.539062 0 .5-.050781 1.023438-.15625 1.523438-.09375.503906-.25.992187-.449218 1.464843-.1875.480469-.429688.929688-.722657 1.355469-.28125.429688-.605469.828125-.972656 1.191406-1.449219 1.453125-3.46875 2.289063-5.535156 2.289063zm0 0" fill="#343c3f"/><path d="m20.117188 387.792969c-.511719 0-1.023438-.042969-1.535157-.144531-.503906-.105469-.992187-.25-1.464843-.449219-.46875-.199219-.929688-.441407-1.347657-.722657-.4375-.28125-.835937-.617187-1.191406-.972656-.367187-.363281-.6875-.761718-.980469-1.191406-.28125-.425781-.523437-.875-.722656-1.355469-.1875-.472656-.34375-.960937-.4375-1.464843-.105469-.5-.15625-1.023438-.15625-1.535157s.050781-1.023437.15625-1.527343c.09375-.5.25-.992188.4375-1.460938.199219-.480469.441406-.929688.722656-1.359375.292969-.425781.617188-.824219.980469-1.191406.355469-.363281.753906-.6875 1.191406-.96875.417969-.285157.878907-.523438 1.347657-.722657.472656-.199218.960937-.34375 1.464843-.449218 2.546875-.511719 5.253907.324218 7.074219 2.140625 1.460938 1.464843 2.296875 3.480469 2.296875 5.539062 0 2.070313-.835937 4.085938-2.296875 5.546875-1.453125 1.453125-3.480469 2.289063-5.539062 2.289063zm0 0" fill="#343c3f"/><path d="m180.0625 0-42.890625 79.691406 42.890625 16.339844-39.828125 39.828125 76.59375 94.976563s8.15625-186.949219-36.765625-230.835938zm0 0" fill="#c48353"/><path d="m331.9375 0 42.894531 79.691406-42.894531 16.339844 39.828125 39.828125-76.59375 94.976563s-8.152344-186.949219 36.765625-230.835938zm0 0" fill="#c48353"/><path d="m384.507812 372.0625-60.789062 32.679688v-33.65625l60.789062-32.679688" fill="#c48353"/><path d="m127.496094 372.0625 60.792968 32.679688v-33.65625l-60.792968-32.679688" fill="#c48353"/><path d="m267.382812 34.269531h-22.761718c-4.332032 0-7.839844-3.507812-7.839844-7.835937s3.507812-7.835938 7.839844-7.835938h22.761718c4.328126 0 7.835938 3.507813 7.835938 7.835938s-3.507812 7.835937-7.835938 7.835937zm0 0" fill="#cce6f6"/><path d="m136.433594 184.574219c-.394532.0625-.804688.09375-1.199219.09375-3.804687 0-7.136719-2.769531-7.734375-6.648438-.007812-.039062-.050781-.28125-.125-.71875-1.328125-7.085937-13.269531-64.125-59.871094-87.03125.886719-2.152343 1.367188-3.269531 1.367188-3.269531 3.042968-3.039062 6.226562-5.964844 9.507812-8.765625 53.425782 28.964844 64.148438 94.425781 64.605469 97.394531.660156 4.273438-2.265625 8.285156-6.550781 8.945313zm0 0" fill="#d89d6c"/><path d="m447.5 97.753906c-25.058594 17.886719-37.523438 45.921875-43.238281 63.683594-2.558594 7.972656-3.773438 13.878906-4.136719 15.863281-.074219.4375-.117188.679688-.125.71875-.597656 3.878907-3.929688 6.648438-7.734375 6.648438-.398437 0-.804687-.03125-1.203125-.09375-2.296875-.355469-4.210938-1.671875-5.367188-3.480469-.609374-.921875-1.015624-1.964844-1.183593-3.074219-.125-.769531-.125-1.574219 0-2.390625 0-.03125.011719-.074218.023437-.117187.332032-2.089844 3.183594-18.859375 12.378906-38.742188 8.277344-17.929687 21.683594-38.378906 42.988282-52.914062 1.097656 1.035156 2.171875 2.078125 3.238281 3.144531 0 0 1.621094 3.753906 4.359375 10.753906zm0 0" fill="#d89d6c"/></svg>