<?xml version="1.0" encoding="iso-8859-1"?>
<!-- Generator: Adobe Illustrator 21.0.0, SVG Export Plug-In . SVG Version: 6.00 Build 0)  -->
<svg xmlns="http://www.w3.org/2000/svg" xmlns:xlink="http://www.w3.org/1999/xlink" version="1.1" id="Capa_1" x="0px" y="0px" viewBox="0 0 512 512" style="enable-background:new 0 0 512 512;" xml:space="preserve" width="512" height="512">
<g>
	<path style="fill:#FFCCBC;" d="M137.923,471.21c-0.578-3.643-3.719-6.325-7.407-6.325H59.326c-20.166,0-39.563,6.052-56.096,17.5   C1.207,483.787,0,486.091,0,488.552V504.5c0,4.142,3.357,7.5,7.5,7.5h123.586c1.989,0,3.897-0.791,5.304-2.197   s2.196-3.314,2.196-5.304l-0.004-24.989C138.582,476.76,138.36,473.967,137.923,471.21z"/>
	<path style="fill:#FFCCBC;" d="M508.77,482.386c-16.533-11.449-35.931-17.5-56.096-17.5h-71.189c-3.688,0-6.829,2.682-7.407,6.325   c-0.438,2.757-0.659,5.549-0.659,8.298l-0.004,24.99c0,1.989,0.79,3.897,2.196,5.304s3.314,2.197,5.304,2.197H504.5   c4.143,0,7.5-3.358,7.5-7.5v-15.948C512,486.091,510.793,483.787,508.77,482.386z"/>
	<path style="fill:#FFAB91;" d="M271.888,444.551C261.933,431.818,256,415.788,256,398.372c0,17.416-5.933,33.445-15.888,46.179   c-6.113,7.818-9.267,17.546-9.269,27.471L230.84,512h50.319l-0.003-39.979C281.155,462.097,278.001,452.369,271.888,444.551z"/>
	<path style="fill:#FF8A65;" d="M508.792,482.401c-15.595-10.805-33.741-16.802-52.676-17.452c0.055,0.027,0.111,0.055,0.166,0.082   c9.7,4.794,15.718,14.811,15.718,25.63v3.268c0,4.457-3.613,8.069-8.069,8.069h-90.516l0,2.31c0,1.047,0.158,2.099,0.566,3.063   c1.225,2.897,3.991,4.627,6.934,4.627H504.5c4.142,0,7.5-3.358,7.5-7.5v-15.948C512,486.102,510.806,483.797,508.792,482.401z"/>
	<path style="fill:#FFCCBC;" d="M262.538,251.022c0.245-5.571,2.192-10.698,5.34-14.873c1.067-1.415,1.104-3.337,0.162-4.838   c-5.166-8.23-8.062-18.029-7.797-28.523c0.674-26.73,23.874-49.602,50.611-49.918c9.011-0.107,17.491,2.119,24.883,6.104   c2.242,1.208,5.024,0.96,6.914-0.747c6.72-6.072,15.822-9.556,25.742-8.864c16.465,1.148,30.034,14.047,31.984,30.437   c0.419,3.521,0.301,6.949-0.275,10.219c-0.429,2.437,0.589,4.871,2.637,6.26c0.741,0.503,1.469,1.024,2.19,1.554l2.561-34.776   C413.974,75.008,344.286,0,256,0C167.713,0,98.027,75.008,104.511,163.056l0.308,4.176c10.412-9.065,24.022-14.556,38.986-14.636   c25.413-0.136,47.153,15.602,55.921,37.87c0.594,1.507,2.108,2.419,3.719,2.258c2.204-0.221,4.502-0.121,6.859,0.377   c9.697,2.05,16.995,10.42,17.671,20.307c0.386,5.651-1.332,10.888-4.444,15.015c-0.893,1.184-0.924,2.794-0.135,4.05   c2.959,4.714,5.027,10.044,5.968,15.754c2.398-1.113,5.06-1.751,7.878-1.751l0,0c10.36,0,18.759,8.399,18.759,18.759l0,0   C256,259.548,258.541,254.462,262.538,251.022z"/>
	<path style="fill:#FFCCBC;" d="M131.086,512h99.755l0.003-39.979c0.001-9.924,3.156-19.652,9.269-27.471   C250.067,431.817,256,415.788,256,398.372l0-133.137c0-10.36-8.399-18.759-18.759-18.759h0c-10.36,0-18.759,8.399-18.759,18.759   v59.027v-84.09c0-10.36-8.399-18.759-18.759-18.759h0c-10.36,0-18.759,8.399-18.759,18.759v84.09V217.773   c0-10.36-8.399-18.759-18.759-18.759h0c-10.36,0-18.759,8.399-18.759,18.759v106.489v-84.09c0-10.36-8.399-18.759-18.759-18.759h0   c-10.36,0-18.759,8.399-18.759,18.759l0,99.433c0,1.039-1.375,1.407-1.894,0.508l-9.821-17.011   c-5.18-8.972-16.653-12.046-25.626-6.866l0,0c-8.972,5.18-12.046,16.653-6.866,25.625l53.127,92.019   c1.979,3.677,4.255,7.17,6.797,10.447c6.14,7.915,9.438,17.665,9.439,27.683L131.086,512z"/>
	<path style="fill:#FFCCBC;" d="M380.914,512H281.16l-0.003-39.979c-0.001-9.924-3.156-19.652-9.269-27.471   C261.933,431.817,256,415.788,256,398.372l0-133.137c0-10.36,8.399-18.759,18.759-18.759h0c10.36,0,18.759,8.399,18.759,18.759   v59.027v-84.09c0-10.36,8.399-18.759,18.759-18.759h0c10.36,0,18.759,8.399,18.759,18.759v84.09V217.773   c0-10.36,8.399-18.759,18.759-18.759h0c10.36,0,18.759,8.399,18.759,18.759v106.489v-84.09c0-10.36,8.399-18.759,18.759-18.759h0   c10.36,0,18.759,8.399,18.759,18.759l0,99.433c0,1.039,1.375,1.407,1.894,0.508l9.821-17.011   c5.18-8.972,16.653-12.046,25.626-6.866l0,0c8.972,5.18,12.046,16.653,6.866,25.625l-53.127,92.019   c-1.979,3.677-4.255,7.17-6.797,10.447c-6.14,7.915-9.438,17.665-9.439,27.683L380.914,512z"/>
	<path style="fill:#5D4037;" d="M347.607,154.503c5.963-3.712,13.128-5.674,20.785-5.14c16.465,1.148,30.034,14.047,31.984,30.437   c0.419,3.521,0.301,6.949-0.275,10.219c-0.429,2.437,0.589,4.871,2.637,6.26c0.741,0.503,1.469,1.024,2.19,1.554l2.561-34.776   c4.669-63.388-30.144-120.014-82.951-146.763c2.623,10.706,4.028,21.89,4.028,33.405c0,21.965-5.068,42.743-14.08,61.246   C322.596,127.574,333.904,142.357,347.607,154.503z"/>
	<path style="fill:#FF8A65;" d="M431.05,189.756h-25.527l-0.595,8.076c18.126,13.318,29.737,34.982,29.135,59.336   c-0.199,8.059-1.723,15.755-4.333,22.907c20.03-9.842,33.821-30.438,33.821-54.262v-3.555   C463.551,204.308,449,189.756,431.05,189.756z"/>
	<path style="fill:#8D6E63;" d="M324.55,16.299C304.003,5.889,280.732,0,256,0C167.713,0,98.026,75.008,104.511,163.056l0.307,4.176   c10.412-9.065,24.022-14.556,38.986-14.636c24.984-0.134,46.409,15.08,55.457,36.753c72.327-5.492,129.304-65.918,129.304-139.651   C328.565,38.187,327.169,27.003,324.55,16.299z"/>
	<path style="fill:#BBDEFB;" d="M267.878,236.149c-3.148,4.175-5.095,9.302-5.34,14.873c3.284-2.826,7.548-4.546,12.221-4.546l0,0   c10.36,0,18.759,8.399,18.759,18.759v-25.063c0-10.36,8.399-18.759,18.759-18.759l0,0c10.36,0,18.759,8.399,18.759,18.759v-22.399   c0-10.36,8.399-18.759,18.759-18.759h0c10.36,0,18.759,8.399,18.759,18.759v22.399c0-10.36,8.399-18.759,18.759-18.759h0   c10.36,0,18.759,8.399,18.759,18.759v72.002c16.599-12.641,27.43-32.428,27.989-55.006c0.626-25.323-11.948-47.742-31.325-60.89   c-2.047-1.389-3.065-3.823-2.637-6.26c0.575-3.271,0.694-6.698,0.275-10.219c-1.95-16.39-15.518-29.289-31.984-30.437   c-9.92-0.692-19.022,2.792-25.742,8.864c-1.89,1.707-4.672,1.956-6.914,0.747c-7.392-3.985-15.872-6.211-24.883-6.104   c-26.737,0.316-49.937,23.188-50.611,49.918c-0.265,10.494,2.631,20.293,7.797,28.523   C268.982,232.811,268.945,234.734,267.878,236.149z"/>
	<path style="fill:#64B5F6;" d="M402.738,196.278c-2.047-1.389-3.065-3.823-2.637-6.26c0.575-3.271,0.694-6.698,0.275-10.219   c-1.95-16.39-15.518-29.289-31.984-30.437c-3.676-0.256-7.239,0.064-10.611,0.874c1.301,2.995,2.196,6.204,2.595,9.563   c0.419,3.521,0.301,6.949-0.275,10.219c-0.429,2.437,0.589,4.871,2.637,6.26c15.467,10.495,26.591,26.901,30.136,45.973   c7.646,2.369,13.2,9.496,13.2,17.921v72.002c16.599-12.641,27.43-32.428,27.989-55.006   C434.689,231.845,422.115,209.426,402.738,196.278z"/>
	<path style="fill:#BBDEFB;" d="M105.926,258.254v-18.082c0-10.36,8.399-18.759,18.759-18.759h0c10.36,0,18.759,8.399,18.759,18.759   v-22.399c0-10.36,8.399-18.759,18.759-18.759h0c10.36,0,18.759,8.399,18.759,18.759v22.399c0-10.36,8.399-18.759,18.759-18.759l0,0   c10.36,0,18.759,8.399,18.759,18.759v25.063c0-7.543,4.462-14.029,10.882-17.008c-0.941-5.71-3.009-11.04-5.968-15.754   c-0.789-1.256-0.758-2.866,0.135-4.05c3.112-4.127,4.83-9.364,4.444-15.015c-0.676-9.888-7.974-18.257-17.671-20.307   c-2.357-0.498-4.655-0.599-6.859-0.377c-1.612,0.162-3.126-0.75-3.719-2.258c-8.767-22.268-30.508-38.006-55.921-37.87   c-32.466,0.174-58.596,25.774-59.399,58.23C83.935,229.898,92.41,246.998,105.926,258.254z"/>
	<path style="fill:#64B5F6;" d="M223.395,232.473c-0.789-1.256-0.758-2.866,0.135-4.05c3.112-4.127,4.83-9.364,4.444-15.015   c-0.676-9.888-7.974-18.257-17.671-20.307c-2.357-0.498-4.655-0.599-6.859-0.377c-1.612,0.162-3.126-0.75-3.719-2.258   c-8.767-22.268-30.508-38.006-55.921-37.87c-6.928,0.037-13.563,1.241-19.729,3.413c16.295,5.774,29.336,18.421,35.65,34.457   c0.594,1.507,2.108,2.419,3.719,2.258c2.204-0.221,4.502-0.121,6.859,0.377c9.697,2.05,16.995,10.42,17.671,20.307   c0.386,5.651-1.332,10.888-4.444,15.015c-0.709,0.941-0.866,2.147-0.509,3.234c3.104-6.076,9.409-10.244,16.701-10.244   c10.36,0,18.759,8.399,18.759,18.759v25.063c0-7.543,4.462-14.029,10.882-17.008C228.423,242.517,226.354,237.187,223.395,232.473z   "/>
	<path style="fill:#FF8A65;" d="M105.926,286.17v-27.916c-13.516-11.256-21.992-28.356-21.52-47.428   c0.185-7.464,1.723-14.557,4.355-21.07H80.95c-17.95,0-32.501,14.551-32.501,32.501v3.555   C48.449,258.197,73.923,284.629,105.926,286.17z"/>
	<circle style="fill:#BBDEFB;" cx="427.602" cy="137.5" r="19.694"/>
	<circle style="fill:#BBDEFB;" cx="457.773" cy="89.971" r="15.27"/>
	<circle style="fill:#BBDEFB;" cx="64.63" cy="129.282" r="16.181"/>
	<g>
		<path style="fill:#FF8A65;" d="M237.224,246.476c-10.032,0.009-18.197,7.899-18.695,17.809l0,0    c-0.016,0.317-0.048,0.629-0.048,0.95v-25.063c0-9.056-6.417-16.612-14.952-18.371v96.944c0,3.983,2.987,7.482,6.96,7.76    c0.064,0.004,0.127,0.008,0.19,0.011c4.332,0.197,7.802,3.626,7.802,7.962v43.894c0,17.385-5.912,33.388-15.835,46.111    c-6.122,7.848-9.322,17.582-9.322,27.536v0c0,13.797-11.185,24.982-24.982,24.982h-37.26l0.003,35h99.755l0.003-39.979    c0.001-9.956,3.203-19.692,9.325-27.543C250.089,431.757,256,415.755,256,398.372V265.706    C256,255.377,247.554,246.467,237.224,246.476z"/>
		<path style="fill:#FF8A65;" d="M173.459,326.523c4.142,0,7.5-3.358,7.5-7.5V217.691c-0.039-9.037-6.465-16.566-15-18.3v119.632    C165.959,323.165,169.317,326.523,173.459,326.523z"/>
		<path style="fill:#FF8A65;" d="M143.446,319.023l-0.001-78.851c0-9.072-6.441-16.64-14.999-18.381v97.233    c0,4.142,3.358,7.5,7.5,7.5C140.088,326.523,143.446,323.165,143.446,319.023z"/>
	</g>
	<g>
		<path style="fill:#FF8A65;" d="M443.415,316.236L443.415,316.236c-8.972-5.18-20.445-2.106-25.626,6.866l-9.822,17.012    c-0.519,0.899-1.894,0.531-1.894-0.508v-99.444c-0.005-9.069-6.444-16.631-15-18.372v109.865c0,24.711-6.505,48.986-18.86,70.386    l-15.059,26.084c-1.994,3.706-4.291,7.224-6.857,10.523c-6.13,7.881-9.38,17.622-9.38,27.606v0.517    c0,13.517-10.957,24.474-24.474,24.474h-35.286L281.16,512h99.755l0.003-39.99c0.001-9.986,3.252-19.728,9.383-27.61    c2.565-3.298,4.86-6.815,6.854-10.519l53.127-92.019C455.461,332.889,452.387,321.416,443.415,316.236z"/>
		<path style="fill:#FF8A65;" d="M293.437,319.023v-55.408c-0.717-8.369-6.918-15.167-15-16.774v72.182c0,4.142,3.358,7.5,7.5,7.5    S293.437,323.165,293.437,319.023z"/>
		<path style="fill:#FF8A65;" d="M323.49,326.523c4.142,0,7.5-3.358,7.5-7.5v-79.789c-0.43-8.666-6.717-15.788-15-17.451v97.24    C315.99,323.165,319.348,326.523,323.49,326.523z"/>
		<path style="fill:#FF8A65;" d="M361.003,326.523c4.142,0,7.5-3.358,7.5-7.5V216.731c-0.475-8.621-6.748-15.693-15-17.348v119.64    C353.503,323.165,356.861,326.523,361.003,326.523z"/>
	</g>
</g>















</svg>
