<svg height="512pt" viewBox="-61 0 512 512.00024" width="512pt" xmlns="http://www.w3.org/2000/svg"><path d="m194.933594 101.113281v133.601563l-30.003906 36.300781h-60l-30-38.402344v-109l30-33.601562 60-30zm0 0" fill="#ffda2d"/><path d="m194.933594 101.113281v133.601563l-30.003906 36.300781h-30v-196.003906l30-15zm0 0" fill="#fdbf00"/><path d="m314.933594 122.714844v111.699218l-30 36.601563h-60l-30-36.601563v-132.101562l30-42.300781 60 30zm0 0" fill="#ffda2d"/><path d="m314.933594 122.714844v111.699218l-30 36.601563h-30v-196.003906l30 15zm0 0" fill="#fdbf00"/><path d="m344.933594 15.011719v256.003906h-60v-241.003906c0-5.699219 3.300781-10.800781 8.398437-13.5l30.003907-15c9.898437-4.796875 21.597656 2.402343 21.597656 13.5zm0 0" fill="#ffda2d"/><path d="m344.933594 15.011719v256.003906h-30v-265.304687l8.402344-4.199219c9.898437-4.796875 21.597656 2.402343 21.597656 13.5zm0 0" fill="#fdbf00"/><path d="m224.933594 30.011719v241.003906h-60.003906v-256.003906c0-11.097657 11.703124-18.300781 21.601562-13.5l30 15c5.101562 2.703125 8.402344 7.800781 8.402344 13.5zm0 0" fill="#ffda2d"/><path d="m224.933594 30.011719v241.003906h-30v-265.304687l21.597656 10.800781c5.101562 2.703125 8.402344 7.800781 8.402344 13.5zm0 0" fill="#fdbf00"/><path d="m104.929688 15.011719v256.003906h-60v-241.003906c0-5.699219 3.300781-10.800781 8.402343-13.5l30-15c9.898438-4.796875 21.597657 2.402343 21.597657 13.5zm0 0" fill="#ffda2d"/><path d="m104.929688 15.011719v256.003906h-30v-265.304687l8.402343-4.199219c9.898438-4.796875 21.597657 2.402343 21.597657 13.5zm0 0" fill="#fdbf00"/><path d="m365.632812 301.015625-21.898437 121-43.800781 30h-210.003906l-43.800782-30-21.898437-121 35.699219-30h270.003906zm0 0" fill="#fff4ca"/><path d="m365.632812 301.015625-21.898437 121-43.800781 30h-105v-181h135zm0 0" fill="#ffe1ba"/><path d="m343.734375 422.015625-14.101563 77.703125c-.601562 4.5-3.601562 8.097656-7.5 10.5-3.898437 2.097656-8.699218 2.398438-12.898437.601562-46.5-18.601562-80.402344-27.902343-114.300781-27.902343-33.902344 0-67.800782 9.300781-114.304688 27.902343-4.199218 1.796876-9 1.5-12.898437-.601562-3.898438-2.402344-6.898438-6-7.5-10.5l-14.101563-77.703125zm0 0" fill="#ff641a"/><path d="m389.632812 168.714844-24 132.300781h-341.402343l-24-132.300781c-.902344-5.101563.898437-10.199219 4.5-13.800782 3.898437-3.601562 9.296875-4.800781 14.101562-3.300781l94.5 26.402344c5.097657 1.5 8.699219 5.097656 10.199219 9.898437 9.902344 31.800782 38.699219 53.101563 71.402344 53.101563 32.699218 0 61.5-21.300781 71.398437-53.101563 1.5-4.800781 5.097657-8.398437 10.199219-9.898437l94.503906-26.402344c4.800782-1.5 10.199219-.300781 14.097656 3.300781 3.601563 3.601563 5.402344 8.699219 4.5 13.800782zm0 0" fill="#ff641a"/><g fill="#f03800"><path d="m194.933594 422.015625h148.800781l-14.101563 77.703125c-.601562 4.5-3.601562 8.097656-7.5 10.5-3.898437 2.097656-8.699218 2.398438-12.898437.601562-46.5-18.601562-80.402344-27.902343-114.300781-27.902343zm0 0"/><path d="m389.632812 168.714844-24 132.300781h-170.699218v-60c32.699218 0 61.5-21.300781 71.398437-53.101563 1.5-4.800781 5.097657-8.398437 10.199219-9.898437l94.503906-26.402344c4.800782-1.5 10.199219-.300781 14.097656 3.300781 3.601563 3.601563 5.402344 8.699219 4.5 13.800782zm0 0"/></g></svg>