<?xml version="1.0" encoding="iso-8859-1"?>
<!-- Generator: Adobe Illustrator 19.0.0, SVG Export Plug-In . SVG Version: 6.00 Build 0)  -->
<svg version="1.1" id="Layer_1" xmlns="http://www.w3.org/2000/svg" xmlns:xlink="http://www.w3.org/1999/xlink" x="0px" y="0px"
	 viewBox="0 0 512 512" style="enable-background:new 0 0 512 512;" xml:space="preserve">
<polygon style="fill:#FE676C;" points="0,189.856 0,332.914 56.264,357.983 33.758,202.308 "/>
<path style="fill:#FF3845;" d="M410.891,251.403c-67.564-16.861-141.475-43.692-181.566-95.484
	c-18.492,13.688-63.077,46.742-76.404,56.469c-16.955,12.375-49.831,15.492-73.057,6.925l-46.105-17.005v133.169l410.891,31.195
	L410.891,251.403z"/>
<path style="fill:#E30026;" d="M436.485,292.279l-148.019-68.495l-110.648-90.531c-8.018,18.262-6.053,40.225,7.015,57.107
	c53.849,69.567,147.03,99.312,212.434,115.634c6.773,1.69,13.091,3.181,19.202,4.623c13.495,3.185,31.544,7.443,38.348,10.94
	L436.485,292.279z"/>
<path style="fill:#B70E21;" d="M229.324,155.919l-33.612-45.1c-0.275,0.205-0.555,0.397-0.827,0.608
	c-7.69,5.953-13.414,13.506-17.066,21.825c13.089,33.435,36.67,62.438,70.59,86.659c37.805,26.993,86.836,47.408,154.308,64.246
	c6.632,1.655,12.88,3.129,18.923,4.555c5.154,1.216,10.131,2.391,14.846,3.566l-25.594-40.876
	C343.326,234.542,269.416,207.711,229.324,155.919z"/>
<path style="fill:#E7D4A7;" d="M410.891,251.403v34.753l67.351,76.776L512,332.913C512,268.728,473.166,266.944,410.891,251.403z"/>
<path style="fill:#F3E6C5;" d="M469.851,304.458c-8.644-6.41-26.981-10.736-48.211-15.746c-3.499-0.826-7.078-1.672-10.749-2.555
	v69.263l67.351-14.992v-7.513C478.242,310.68,472.574,306.478,469.851,304.458z"/>
<polygon style="fill:#F9F3E2;" points="0,332.914 0,367.047 45.011,379.413 33.758,332.914 "/>
<polygon style="fill:#F3E6C5;" points="318.578,332.914 33.758,332.914 33.758,379.413 341.083,378.299 "/>
<polygon style="fill:#CEBC96;" points="478.242,332.914 455.736,367.047 478.242,401.181 512,401.181 512,332.914 "/>
<rect x="318.577" y="332.913" style="fill:#E7D4A7;" width="159.665" height="68.267"/>
<polygon style="fill:#F3E6C5;" points="0,367.047 0,401.181 33.758,401.181 45.011,384.114 33.758,367.047 "/>
<g>
	<polygon style="fill:#E7D4A7;" points="33.758,367.047 33.758,401.181 318.578,401.181 329.83,367.047 	"/>
	<path style="fill:#E7D4A7;" d="M268.514,182.326c-3.767-2.738-9.048-1.905-11.788,1.867l-36.385,50.078
		c-2.74,3.771-1.904,9.048,1.867,11.788c3.767,2.738,9.048,1.905,11.788-1.867l36.385-50.078
		C273.121,190.344,272.286,185.065,268.514,182.326z"/>
	<path style="fill:#E7D4A7;" d="M307.363,206.192c-4.333-1.719-9.238,0.397-10.958,4.73l-22.93,57.749
		c-1.719,4.332,0.398,9.237,4.73,10.958c4.333,1.719,9.238-0.397,10.958-4.73l22.93-57.749
		C313.812,212.818,311.694,207.913,307.363,206.192z"/>
</g>
<g>
</g>
<g>
</g>
<g>
</g>
<g>
</g>
<g>
</g>
<g>
</g>
<g>
</g>
<g>
</g>
<g>
</g>
<g>
</g>
<g>
</g>
<g>
</g>
<g>
</g>
<g>
</g>
<g>
</g>
</svg>
