<svg height="512pt" viewBox="0 -146 512 512" width="512pt" xmlns="http://www.w3.org/2000/svg"><path d="m178.226562 7.648438h145.132813c9.578125 0 17.339844 7.765624 17.339844 17.34375v84.664062h-223.390625v-29.582031l46.832031-65.203125c3.257813-4.53125 8.5-7.222656 14.085937-7.222656zm0 0" fill="#d5f3f7"/><path d="m323.359375 7.648438h-36.042969c9.578125 0 17.34375 7.765624 17.34375 17.34375v84.664062h36.039063v-84.664062c0-9.578126-7.761719-17.34375-17.339844-17.34375zm0 0" fill="#a7e8f1"/><g fill="#ff6930"><path d="m126.023438 81.054688 44.332031-61.714844c1.816406-2.53125 4.757812-4.039063 7.871093-4.039063h51.796876v65.753907h15.300781v-65.753907h78.035156c5.34375 0 9.691406 4.347657 9.691406 9.691407v56.0625h15.300781v-56.0625c0-13.78125-11.210937-24.992188-24.992187-24.992188h-145.132813c-8.027343 0-15.617187 3.890625-20.296874 10.410156l-48.273438 67.203125v3.441407zm0 0"/><path d="m488.308594 172.613281h-140.429688v-103.59375h140.429688c5.78125 0 10.464844 4.683594 10.464844 10.464844v27.050781l-2.714844 3.347656v20.582032l2.714844 3.730468v27.953126c0 5.78125-4.683594 10.464843-10.464844 10.464843zm0 0"/><path d="m356.003906 172.613281h-337.246094v-38.300781l5.230469-4.667969v-18.113281l-5.230469-4.996094v-3.597656c0-8.59375 5.3125-16.296875 13.34375-19.355469 25.308594-9.628906 52.164063-14.5625 79.242188-14.5625h244.660156zm0 0"/></g><path d="m488.101562 69.019531h-32.503906v55.738281c0 5.894532-4.78125 10.671876-10.675781 10.671876h-97.042969v37.183593h140.222656c5.894532 0 10.671876-4.777343 10.671876-10.675781v-27.742188l-3.003907-4.019531v-20.582031l3.003907-3.058594v-26.84375c0-5.890625-4.777344-10.671875-10.671876-10.671875zm0 0" fill="#ff5426"/><path d="m312.824219 69.019531v53.90625c0 6.90625-5.597657 12.503907-12.507813 12.503907h-281.558594v37.183593h337.246094v-103.59375zm0 0" fill="#ff5426"/><path d="m47.507812 134.3125h-28.75v-27.777344h12.019532c6.972656 0 13.308594 4.070313 16.203125 10.414063l4.855469 10.632812c1.4375 3.152344-.863282 6.730469-4.328126 6.730469zm0 0" fill="#e7e7e7"/><path d="m51.835938 127.582031-4.855469-10.632812c-2.894531-6.34375-9.230469-10.414063-16.203125-10.414063h-12.019532v.03125c6.613282.335938 12.53125 4.316406 15.304688 10.382813l4.851562 10.632812c1.4375 3.148438-.863281 6.730469-4.324218 6.730469h12.921875c3.460937 0 5.761719-3.578125 4.324219-6.730469zm0 0" fill="#cecece"/><path d="m504.5 190.414062h-21.351562l-5.378907-5.523437h-120.75l-4.421875 5.523437h-152.59375l-5.988281-4.035156h-119.316406l-5.246094 4.035156h-61.953125c-4.140625 0-7.5-3.359374-7.5-7.5v-18.660156c0-4.144531 3.359375-7.5 7.5-7.5h497c4.140625 0 7.5 3.355469 7.5 7.5v18.660156c0 4.144532-3.359375 7.5-7.5 7.5zm0 0" fill="#9c9c9c"/><path d="m504.351562 156.753906h-10.675781v9.179688c0 4.222656-3.425781 7.648437-7.652343 7.648437h-486.023438v9.183594c0 4.222656 3.425781 7.648437 7.648438 7.648437h61.800781l6.453125-5.320312h116.90625l7.195312 5.320312h152.59375l5.808594-5.753906h118.554688l6.1875 5.753906h21.203124c4.222657 0 7.648438-3.425781 7.648438-7.648437v-18.363281c0-4.222656-3.425781-7.648438-7.648438-7.648438zm0 0" fill="#838383"/><path d="m218.292969 103.453125h-20.398438c-4.226562 0-7.652343-3.425781-7.652343-7.652344 0-4.222656 3.425781-7.648437 7.652343-7.648437h20.398438c4.226562 0 7.652343 3.425781 7.652343 7.648437 0 4.226563-3.425781 7.652344-7.652343 7.652344zm0 0" fill="#f04424"/><path d="m319.28125 103.453125h-20.402344c-4.226562 0-7.648437-3.425781-7.648437-7.652344 0-4.222656 3.421875-7.648437 7.648437-7.648437h20.402344c4.222656 0 7.648438 3.425781 7.648438 7.648437 0 4.226563-3.425782 7.652344-7.648438 7.652344zm0 0" fill="#f04424"/><path d="m498.773438 134.195312h-8.972657c-4.707031 0-8.523437-3.816406-8.523437-8.523437v-10.613281c0-4.707032 3.816406-8.523438 8.523437-8.523438h8.972657zm0 0" fill="#ffae8b"/><path d="m200.003906 190.414062v-6.046874c0-36.050782-29.226562-65.273438-65.277344-65.273438-36.050781 0-65.273437 29.222656-65.273437 65.273438v6.046874zm0 0" fill="#e7e7e7"/><path d="m134.726562 119.09375c-3.722656 0-7.367187.328125-10.917968.925781 30.851562 5.199219 54.355468 32.019531 54.355468 64.347657v6.046874h21.839844v-6.046874c0-36.050782-29.226562-65.273438-65.277344-65.273438zm0 0" fill="#cecece"/><path d="m483.148438 190.414062v-6.046874c0-36.050782-29.226563-65.273438-65.277344-65.273438-36.050782 0-65.273438 29.222656-65.273438 65.273438v6.046874zm0 0" fill="#e7e7e7"/><path d="m417.871094 119.09375c-3.722656 0-7.367188.328125-10.917969.925781 30.851563 5.199219 54.355469 32.019531 54.355469 64.347657v6.046874h21.839844v-6.046874c0-36.050782-29.226563-65.273438-65.277344-65.273438zm0 0" fill="#cecece"/><path d="m171.867188 183.707031c0 20.511719-16.628907 37.140625-37.140626 37.140625-20.511718 0-37.136718-16.628906-37.136718-37.140625s16.625-37.140625 37.136718-37.140625c20.511719 0 37.140626 16.628906 37.140626 37.140625zm0 0" fill="#9c9c9c"/><path d="m148.8125 149.339844c3.550781 5.695312 5.609375 12.417968 5.609375 19.621094 0 20.511718-16.625 37.140624-37.136719 37.140624-4.988281 0-9.742187-.992187-14.085937-2.773437 6.558593 10.515625 18.222656 17.515625 31.527343 17.515625 20.511719 0 37.140626-16.625 37.140626-37.136719 0-15.523437-9.527344-28.816406-23.054688-34.367187zm0 0" fill="#838383"/><path d="m145.128906 183.707031c0 5.742188-4.65625 10.398438-10.402344 10.398438-5.742187 0-10.398437-4.65625-10.398437-10.398438 0-5.742187 4.65625-10.398437 10.398437-10.398437 5.746094 0 10.402344 4.65625 10.402344 10.398437zm0 0" fill="#e7e7e7"/><path d="m455.011719 182.6875c0 20.511719-16.628907 37.136719-37.140625 37.136719-20.511719 0-37.136719-16.625-37.136719-37.136719s16.625-37.140625 37.136719-37.140625c20.511718 0 37.140625 16.628906 37.140625 37.140625zm0 0" fill="#9c9c9c"/><path d="m431.957031 148.320312c3.550781 5.695313 5.609375 12.417969 5.609375 19.621094 0 20.511719-16.628906 37.140625-37.136718 37.140625-4.988282 0-9.742188-.992187-14.085938-2.773437 6.558594 10.515625 18.222656 17.515625 31.527344 17.515625 20.511718 0 37.140625-16.628907 37.140625-37.136719 0-15.527344-9.53125-28.816406-23.054688-34.367188zm0 0" fill="#838383"/><path d="m428.269531 182.6875c0 5.742188-4.65625 10.398438-10.398437 10.398438-5.742188 0-10.398438-4.65625-10.398438-10.398438s4.65625-10.398438 10.398438-10.398438c5.742187 0 10.398437 4.65625 10.398437 10.398438zm0 0" fill="#e7e7e7"/></svg>