<?xml version="1.0" encoding="iso-8859-1"?>
<!-- Generator: Adobe Illustrator 19.0.0, SVG Export Plug-In . SVG Version: 6.00 Build 0)  -->
<svg version="1.1" id="Capa_1" xmlns="http://www.w3.org/2000/svg" xmlns:xlink="http://www.w3.org/1999/xlink" x="0px" y="0px"
	 viewBox="0 0 511.999 511.999" style="enable-background:new 0 0 511.999 511.999;" xml:space="preserve">
<path style="fill:#2864F0;" d="M206.133,108.796c-3.838,0-7.676-1.465-10.605-4.395c-5.859-5.859-5.859-15.351,0-21.21
	l36.356-36.371c5.859-5.859,15.351-5.859,21.21,0c5.859,5.859,5.859,15.351,0,21.21l-36.356,36.371
	C213.807,107.331,209.97,108.796,206.133,108.796z"/>
<path style="fill:#0053BF;" d="M418.248,320.912c-3.838,0-7.676-1.465-10.605-4.395c-5.859-5.859-5.859-15.351,0-21.21
	l36.371-36.356c5.859-5.859,15.351-5.859,21.21,0c5.859,5.859,5.859,15.351,0,21.21l-36.371,36.356
	C425.923,319.447,422.086,320.912,418.248,320.912z"/>
<path style="fill:#69A8FF;" d="M143.923,267.996H57.437c-3.984,0-7.793,1.854-10.605,4.666l-42.435,42.42
	c-3.677,3.677-5.186,8.994-3.999,14.047c1.201,5.068,4.937,9.141,9.858,10.781l90.734,29.691c1.582,0.527,3.179,0.776,4.746,0.776
	c6.284,0,12.129-3.97,14.223-10.254l38.963-76.857C158.923,274.977,152.214,267.996,143.923,267.996z"/>
<path style="fill:#3389FF;" d="M228.778,353.123l-76.872,38.963c-7.852,2.607-12.1,11.104-9.478,18.969l29.706,90.678
	c1.641,4.937,5.713,8.657,10.781,9.858c1.143,0.264,2.3,0.396,3.442,0.396c3.926,0,7.764-1.553,10.605-4.395l42.42-44.024
	c2.813-2.813,4.607-5.031,4.607-9.016v-86.431C243.99,359.831,237.069,353.123,228.778,353.123z"/>
<path style="fill:#69A8FF;" d="M310.074,106.599L76.733,42.954c-5.2-1.421-10.752,0.044-14.545,3.867L19.768,89.256
	c-3.325,3.325-4.907,8.027-4.248,12.686c0.659,4.659,3.457,8.745,7.573,11.03l190.906,106.051c2.3,1.289,4.805,1.89,7.266,1.89
	c5.273,0,10.386-2.783,13.124-7.72l86.218-88.181C322.788,117.028,318.071,108.781,310.074,106.599z"/>
<path style="fill:#3389FF;" d="M469.09,435.311l-63.645-233.341c-2.183-8.013-10.444-12.744-18.412-10.532l-88.181,86.218
	c-7.251,4.014-9.858,13.153-5.83,20.39l106.051,190.906c2.284,4.116,6.372,6.914,11.03,7.573c0.688,0.103,1.392,0.146,2.08,0.146
	c3.955,0,7.778-1.567,10.605-4.395l42.435-42.42C469.032,446.049,470.511,440.497,469.09,435.311z"/>
<path style="fill:#E6F1FF;" d="M498.78,13.206c-11.4-11.4-27.899-14.699-35.699-12.601c-52.198,14.4-100.195,42.599-138.295,80.697
	L172.693,233.396c-35.699,35.699-57.597,74.697-73.197,130.496c-2.1,7.5,1.199,24.299,12.599,35.998
	c11.4,11.4,28.199,14.701,35.999,12.601c52.198-14.4,99.897-42.299,138.295-80.697l144.294-144.294
	c38.4-38.4,66.298-86.097,80.697-138.295C513.48,41.706,510.48,24.904,498.78,13.206z"/>
<path style="fill:#BFE1FF;" d="M511.379,49.206c-14.398,52.198-42.297,99.895-80.697,138.295L286.388,331.794
	c-38.398,38.397-86.097,66.296-138.295,80.697c-7.8,2.1-24.599-1.201-35.999-12.601L498.78,13.206
	C510.48,24.904,513.48,41.706,511.379,49.206z"/>
<g>
	<path style="fill:#69A8FF;" d="M422.884,110.402l-21.3,21.3c-3.001,2.999-6.899,4.499-10.501,4.499c-3.898,0-7.798-1.5-10.8-4.499
		c-5.7-6-5.7-15.299,0-21.3l21.3-20.999c6-6,14.999-6,20.999,0h0.3C428.582,95.103,428.582,104.702,422.884,110.402z"/>
	<path style="fill:#69A8FF;" d="M196.992,336.292l-84.898,84.898c-5.7,5.7-15.299,5.7-21.298,0c-5.7-6-5.7-15.299,0-21.3
		l84.896-84.896c6-5.7,15.299-5.7,21.3,0C202.692,320.994,202.692,330.294,196.992,336.292z"/>
</g>
<g>
	<path style="fill:#3389FF;" d="M196.992,336.292l-84.898,84.898c-5.7,5.7-15.299,5.7-21.298,0l106.196-106.196
		C202.692,320.994,202.692,330.294,196.992,336.292z"/>
	<path style="fill:#3389FF;" d="M422.884,110.402l-21.3,21.3c-3.001,2.999-6.899,4.499-10.501,4.499c-3.898,0-7.798-1.5-10.8-4.499
		l42.299-42.299h0.3C428.582,95.103,428.582,104.702,422.884,110.402z"/>
</g>
<g>
</g>
<g>
</g>
<g>
</g>
<g>
</g>
<g>
</g>
<g>
</g>
<g>
</g>
<g>
</g>
<g>
</g>
<g>
</g>
<g>
</g>
<g>
</g>
<g>
</g>
<g>
</g>
<g>
</g>
</svg>
