<svg height="512pt" viewBox="0 -41 512 512" width="512pt" xmlns="http://www.w3.org/2000/svg"><path d="m479.203125 430.597656h-447.207031c-7.941406 0-14.378906-6.441406-14.378906-14.378906v-210.296875h475.96875v210.296875c0 7.941406-6.4375 14.378906-14.382813 14.378906zm0 0" fill="#d9edff"/><path d="m463.84375 205.921875v219.746094c0 2.722656-2.207031 4.929687-4.929688 4.929687h20.039063c8.082031 0 14.632813-6.550781 14.632813-14.632812v-210.042969zm0 0" fill="#b4dbff"/><path d="m35.492188 0c-19.601563 0-35.492188 15.890625-35.492188 35.492188v161.714843h512v-161.714843c0-19.601563-15.890625-35.492188-35.492188-35.492188zm0 0" fill="#e6e2e6"/><path d="m29.269531 239.265625h-1.648437c-15.253906 0-27.621094-12.367187-27.621094-27.621094v-56.496093h56.890625v56.496093c0 15.253907-12.367187 27.621094-27.621094 27.621094zm0 0" fill="#f04424"/><path d="m85.332031 239.265625c-15.707031 0-28.441406-12.738281-28.441406-28.445313v-23.105468h56.886719v23.105468c0 15.707032-12.734375 28.445313-28.445313 28.445313zm0 0" fill="#d8d1d7"/><path d="m143.046875 239.265625h-1.648437c-15.253907 0-27.621094-12.367187-27.621094-27.621094v-56.496093h56.890625v56.496093c0 15.253907-12.367188 27.621094-27.621094 27.621094zm0 0" fill="#f04424"/><path d="m199.109375 239.265625c-15.707031 0-28.441406-12.738281-28.441406-28.445313v-23.105468h56.886719v23.105468c0 15.707032-12.734376 28.445313-28.445313 28.445313zm0 0" fill="#d8d1d7"/><path d="m256.824219 239.265625h-1.648438c-15.253906 0-27.621093-12.367187-27.621093-27.621094v-56.496093h56.890624v56.496093c0 15.253907-12.367187 27.621094-27.621093 27.621094zm0 0" fill="#f04424"/><path d="m312.890625 239.265625c-15.710937 0-28.445313-12.738281-28.445313-28.445313v-23.105468h56.890626v23.105468c-.003907 15.707032-12.738282 28.445313-28.445313 28.445313zm0 0" fill="#d8d1d7"/><path d="m370.601562 239.265625h-1.648437c-15.253906 0-27.621094-12.367187-27.621094-27.621094v-56.496093h56.890625v56.496093c0 15.253907-12.367187 27.621094-27.621094 27.621094zm0 0" fill="#f04424"/><path d="m426.667969 239.265625c-15.710938 0-28.445313-12.738281-28.445313-28.445313v-23.105468h56.890625v23.105468c-.003906 15.707032-12.738281 28.445313-28.445312 28.445313zm0 0" fill="#d8d1d7"/><path d="m484.378906 239.265625h-1.648437c-15.253907 0-27.621094-12.367187-27.621094-27.621094v-56.496093h56.890625v56.496093c0 15.253907-12.367188 27.621094-27.621094 27.621094zm0 0" fill="#f04424"/><g fill="#ff5426"><path d="m56.890625 187.714844h-56.890625v-152.832032c0-19.265624 15.617188-34.882812 34.882812-34.882812h22.003907v187.714844zm0 0"/><path d="m113.777344 0h56.890625v187.714844h-56.890625zm0 0"/><path d="m227.554688 0h56.890624v187.714844h-56.890624zm0 0"/><path d="m341.332031 0h56.890625v187.714844h-56.890625zm0 0"/></g><path d="m478.425781 155.148438v83.644531c1.664063.304687 3.378907.472656 5.128907.472656 15.710937 0 28.445312-12.738281 28.445312-28.445313v-55.671874zm0 0" fill="#bc3720"/><path d="m512 187.714844h-56.890625v-187.714844h22.003906c19.269531 0 34.886719 15.617188 34.886719 34.882812zm0 0" fill="#ff5426"/><path d="m476.507812 0h-13.789062c8.675781 0 15.707031 7.03125 15.707031 15.703125v172.007813h33.574219v-152.21875c0-19.601563-15.890625-35.492188-35.492188-35.492188zm0 0" fill="#f04424"/><path d="m270.710938 393.320312h-200.75c-2.808594 0-5.085938-2.277343-5.085938-5.085937v-105.816406c0-2.808594 2.277344-5.085938 5.085938-5.085938h200.75c2.808593 0 5.085937 2.277344 5.085937 5.085938v105.816406c0 2.808594-2.277344 5.085937-5.085937 5.085937zm0 0" fill="#fbc700"/><path d="m270.710938 277.332031h-30.527344v85.464844c0 2.8125-2.277344 5.089844-5.085938 5.089844h-170.222656v20.347656c0 2.808594 2.277344 5.085937 5.085938 5.085937h200.75c2.808593 0 5.085937-2.277343 5.085937-5.085937v-105.816406c0-2.808594-2.277344-5.085938-5.085937-5.085938zm0 0" fill="#e9b900"/><path d="m123.023438 277.332031h23.402343v115.988281h-23.402343zm0 0" fill="#865b47"/><path d="m194.246094 277.332031h23.402344v115.988281h-23.402344zm0 0" fill="#865b47"/><path d="m136.25 277.332031h10.175781v115.988281h-10.175781zm0 0" fill="#704c3b"/><path d="m207.472656 277.332031h10.175782v115.988281h-10.175782zm0 0" fill="#704c3b"/><path d="m270.710938 405.023438h-200.75c-9.253907 0-16.785157-7.535157-16.785157-16.789063v-105.816406c0-9.253907 7.53125-16.785157 16.785157-16.785157h200.75c9.253906 0 16.785156 7.53125 16.785156 16.785157v105.816406c0 9.253906-7.53125 16.789063-16.785156 16.789063zm-191.082032-23.402344h181.414063c1.6875 0 3.050781-1.367188 3.050781-3.054688v-86.480468c0-1.6875-1.367188-3.054688-3.050781-3.054688h-181.414063c-1.6875 0-3.054687 1.367188-3.054687 3.054688v86.480468c0 1.6875 1.367187 3.054688 3.054687 3.054688zm0 0" fill="#865b47"/><path d="m275.175781 266.253906c.394531 1.421875.621094 2.914063.621094 4.464844v113.617188c0 4.960937-4.023437 8.984374-8.988281 8.984374h-208.546875c-1.546875 0-3.039063-.226562-4.464844-.617187 1.964844 7.089844 8.457031 12.320313 16.167969 12.320313h200.746094c9.253906 0 16.785156-7.535157 16.785156-16.789063v-105.816406c0-7.707031-5.226563-14.199219-12.320313-16.164063zm0 0" fill="#704c3b"/><path d="m429.394531 430.734375h-99.671875v-152.898437c0-6.398438 5.183594-11.582032 11.582032-11.582032h76.507812c6.394531 0 11.582031 5.183594 11.582031 11.582032zm0 0" fill="#865b47"/><path d="m417.609375 266.253906h-15.726563c6.507813 0 11.785157 5.277344 11.785157 11.785156v152.699219h15.726562v-152.699219c0-6.507812-5.277343-11.785156-11.785156-11.785156zm0 0" fill="#704c3b"/><path d="m363.789062 380.671875c0 4.796875-3.886718 8.683594-8.683593 8.683594s-8.683594-3.886719-8.683594-8.683594 3.886719-8.6875 8.683594-8.6875 8.683593 3.890625 8.683593 8.6875zm0 0" fill="#bbb0ba"/><path d="m358.367188 353.109375h40.34375c1.6875 0 3.054687-1.367187 3.054687-3.050781v-57.972656c0-1.6875-1.367187-3.054688-3.054687-3.054688h-40.34375c-1.683594 0-3.050782 1.367188-3.050782 3.054688v57.972656c0 1.683594 1.367188 3.050781 3.050782 3.050781zm0 0" fill="#fbc700"/><path d="m398.710938 289.03125h-14.75c1.6875 0 3.050781 1.367188 3.050781 3.054688v57.972656c0 1.683594-1.363281 3.050781-3.050781 3.050781h14.75c1.6875 0 3.054687-1.367187 3.054687-3.050781v-57.972656c0-1.6875-1.367187-3.054688-3.054687-3.054688zm0 0" fill="#e9b900"/></svg>