<?xml version="1.0" encoding="iso-8859-1"?>
<!-- Generator: Adobe Illustrator 19.0.0, SVG Export Plug-In . SVG Version: 6.00 Build 0)  -->
<svg version="1.1" id="Capa_1" xmlns="http://www.w3.org/2000/svg" xmlns:xlink="http://www.w3.org/1999/xlink" x="0px" y="0px"
	 viewBox="0 0 511.999 511.999" style="enable-background:new 0 0 511.999 511.999;" xml:space="preserve">
<g>
	<path style="fill:#E0F4FF;" d="M338.808,481.368h-67.492v-158.09c0-8.458-6.857-15.316-15.316-15.316
		c-8.458,0-15.316,6.857-15.316,15.316v158.089h-67.49c-8.459,0-15.316,6.857-15.316,15.316s6.857,15.316,15.316,15.316h165.615
		c8.458,0,15.316-6.857,15.316-15.316S347.266,481.368,338.808,481.368z"/>
	<path style="fill:#E0F4FF;" d="M372.911,144.91H139.087c-4.479,0-8.734-1.96-11.644-5.367c-2.91-3.405-4.183-7.913-3.485-12.338
		l18.042-114.278C143.177,5.483,149.593,0,157.13,0h197.74c7.536,0,13.953,5.483,15.128,12.928l18.042,114.278
		c0.699,4.424-0.575,8.932-3.485,12.338C381.646,142.949,377.391,144.91,372.911,144.91z"/>
</g>
<path style="fill:#FF5957;" d="M255.999,338.596c-41.397,0-80.564-18.05-107.457-49.524
	c-26.895-31.475-38.617-72.983-32.159-113.877l7.576-47.989c1.175-7.445,7.592-12.928,15.128-12.928h233.824
	c7.536,0,13.953,5.483,15.128,12.928l7.576,47.99c6.457,40.895-5.264,82.401-32.159,113.876
	C336.565,320.546,297.396,338.596,255.999,338.596z"/>
<g>
	<path style="fill:#B7E3FF;" d="M338.808,481.368h-67.492v-158.09c0-8.458-6.857-15.316-15.316-15.316c-0.001,0-0.002,0-0.003,0
		v204.036l0,0h82.811c8.458,0,15.316-6.857,15.316-15.316S347.266,481.368,338.808,481.368z"/>
	<path style="fill:#B7E3FF;" d="M369.998,12.928C368.822,5.483,362.406,0,354.869,0h-98.873v144.91h116.915
		c4.479,0,8.734-1.96,11.643-5.367c2.911-3.405,4.184-7.913,3.485-12.338L369.998,12.928z"/>
</g>
<path style="fill:#FC1B5B;" d="M388.041,127.205c-1.175-7.445-7.593-12.928-15.128-12.928H255.996v224.318c0.001,0,0.002,0,0.003,0
	c41.397,0,80.564-18.05,107.457-49.524c26.896-31.475,38.617-72.983,32.159-113.876L388.041,127.205z"/>
<g>
</g>
<g>
</g>
<g>
</g>
<g>
</g>
<g>
</g>
<g>
</g>
<g>
</g>
<g>
</g>
<g>
</g>
<g>
</g>
<g>
</g>
<g>
</g>
<g>
</g>
<g>
</g>
<g>
</g>
</svg>
