<svg enable-background="new 0 0 140 140" height="512" viewBox="0 0 140 140" width="512" xmlns="http://www.w3.org/2000/svg"><circle cx="70" cy="70" fill="#e05b49" r="64"/><path d="m37.7793808 100.6450272c.1199951.1299438.25.2599487.3798828.3799438l32.9527588 32.9468918c31.786377-.5438232 57.9178391-24.2467575 62.2451096-54.9691086l-35.8778-35.8777466c-.0200195-.0200195-.0400391-.039978-.0600586-.0599976-.2698975-.2600098-.6298828-.4100342-1.0299072-.4100342h-3.1099854l-3.3100586-3.2999878c-2.3599854-2.289978-5.5699463-3.7000122-9.1099854-3.7000122-5.0299072 0-9.3900146 2.8400269-11.5899658 7h-27.4499511c-2.9899902 0-5.4300537 2.4300537-5.4300537 5.4200439 0 .2099609.0198975.4099731.039917.6099854l-.0799561 48.25c0 1.4299928.540039 2.7299806 1.4300537 3.7100221z" opacity=".1"/><path d="m97.8900604 44.1512032v31.0026588h-55.6563186l-4.6125718-23.6404419 1.4705353-6.6801987 6.9124794-.6820182z" fill="#474c5b"/><path d="m42.6802979 52.0038033-6.251709-3.9263306-.0828858 48.8595543c0 3.0512695 2.4735107 5.5248413 5.5247803 5.5248413h58.3179932c1.9141846 0 3.4658203-1.5516968 3.4658203-3.4658203l-.1761093-46.9922447z" fill="#4d5c7d"/><path d="m101.9994354 53.5037422h-60.1826133c-2.9921875 0-5.4257812-2.434082-5.4257812-5.4262695s2.4335938-5.4262695 5.4257812-5.4262695h54.5732384c.828125 0 1.5.6713867 1.5 1.5s-.671875 1.5-1.5 1.5h-54.5732384c-1.3378906 0-2.4257812 1.0883789-2.4257812 2.4262695s1.0878906 2.4262695 2.4257812 2.4262695h60.1826134c.828125 0 1.5.6713867 1.5 1.5s-.6718751 1.5-1.5000001 1.5z" fill="#64798a"/><path d="m84.4774628 71.5941315c-3.369751 0-6.1014404 2.7316895-6.1014404 6.1013794 0 3.369751 2.7316895 6.1014404 6.1014404 6.1014404h19.0219727v-12.2028198z" fill="#64798a"/><circle cx="83.989" cy="77.696" fill="#474c5b" r="2.639"/><ellipse cx="60.577" cy="91.237" fill="#fcd462" rx="13.106" ry="13.106" transform="matrix(.987 -.16 .16 .987 -13.832 10.881)"/><g fill="#f7be56"><ellipse cx="60.577" cy="91.237" rx="9.345" ry="9.345" transform="matrix(.987 -.16 .16 .987 -13.832 10.881)"/><path d="m60.158112 79.17408h.837288v1.702199h-.837288z"/><path d="m60.158112 101.598053h.837288v1.702199h-.837288z"/><path d="m71.370094 90.38607h.837288v1.702199h-.837288z" transform="matrix(0 1 -1 0 163.026 19.448)"/><path d="m48.946125 90.38607h.837288v1.702199h-.837288z" transform="matrix(0 1 -1 0 140.602 41.872)"/><path d="m68.086182 82.457993h.837288v1.702199h-.837288z" transform="matrix(.707 .707 -.707 .707 78.973 -24.04)"/><path d="m52.230042 98.31414h.837288v1.702199h-.837288z" transform="matrix(.707 .707 -.707 .707 85.541 -8.183)"/><path d="m68.086182 98.31414h.837288v1.702199h-.837288z" transform="matrix(-.707 .707 -.707 -.707 187.065 120.845)"/><path d="m52.230042 82.457993h.837288v1.702199h-.837288z" transform="matrix(-.707 .707 -.707 -.707 148.785 104.989)"/><path d="m55.86747 80.027542h.837288v1.702199h-.837288z" transform="matrix(.924 -.383 .383 .924 -26.666 27.696)"/><path d="m64.448753 100.744591h.837288v1.702199h-.837288z" transform="matrix(.924 -.383 .383 .924 -33.941 32.557)"/><path d="m70.516632 86.095429h.837288v1.702199h-.837288z" transform="matrix(.383 .924 -.924 .383 124.118 -11.862)"/><path d="m49.799587 94.676712h.837288v1.702199h-.837288z" transform="matrix(.383 .924 -.924 .383 119.257 12.575)"/><path d="m64.448753 80.027542h.837288v1.702199h-.837288z" transform="matrix(.924 .383 -.383 .924 35.889 -18.667)"/><path d="m55.86747 100.744591h.837288v1.702199h-.837288z" transform="matrix(.924 .383 -.383 .924 43.164 -13.806)"/><path d="m70.516632 94.676712h.837288v1.702199h-.837288z" transform="matrix(-.383 .924 -.924 -.383 186.337 66.549)"/><path d="m49.799587 86.095429h.837288v1.702199h-.837288z" transform="matrix(-.383 .924 -.924 -.383 149.764 73.824)"/></g><path d="m65.3981705 91.6796341c-.3419647-.4496002-.8310242-.7676315-1.4671631-.9541702.4926453-.2439499.860939-.564415 1.1048508-.9613953.2439499-.3969803.3658981-.8202515.3658981-1.2698898 0-.4830704-.1375122-.9458389-.4124908-1.3882599-.2750244-.4424133-.6552963-.7700195-1.1407585-.9828949-.3677216-.1611862-.8275604-.2607956-1.3777466-.2998962v-1.3099594h-1.3808517v1.2905884h-.6982918v-1.2905884h-1.380806v1.2905884h-.5848083v-.0032349h-1.5442086v1.2376633h1.0872498v8.0421753h-1.0872498v1.2376175h1.0872498v.0035477h1.0417671v1.2928238h1.380806v-1.2928238h.6982918v1.2928238h1.3808517v-1.3044435c.4594841-.0222473.8616066-.0768661 1.2055664-.1641541.4615288-.1172104.8453865-.2905884 1.1514854-.5201721.3060989-.2295914.5631714-.5560379.7712631-.9793091.208046-.4232635.312088-.8812408.312088-1.3738861 0-.6122055-.1709823-1.1431503-.5129928-1.5927505zm-6.0372849-4.6347122h2.102108c.755703 0 1.2889977.0490341 1.5999336.1470871.3108444.0980606.5500069.2798157.7173996.5452652.1674385.2654572.2511292.5727539.2511292.9219437 0 .3682556-.0896759.6744003-.2690392.9183044-.1793594.2439117-.4460068.4185257-.7999878.5237656-.2678452.0813065-.7102165.1219559-1.3272552.1219559h-2.2742882zm4.9001618 7.1134948c-.13871.2558746-.3156776.450798-.5309448.5847168-.2152252.1339264-.4830704.2295914-.8034935.2869568-.181797.0335083-.4974747.0502701-.9470291.0502701h-.8896713-.6982918-1.0307312v-3.6159515h2.4321518c.6696091 0 1.18256.0586014 1.5389328.1757736.3563271.1171646.6348991.3204651.8358078.6098099.2008591.2893829.3013153.6301956.3013153 1.0223923-.0000001.3347854-.069336.6301574-.208046.886032z" fill="#edb151"/><path d="m64.9970932 91.6796341c-.3419647-.4496002-.8310242-.7676315-1.4671631-.9541702.4926453-.2439499.860939-.564415 1.1048508-.9613953.2439499-.3969803.3658981-.8202515.3658981-1.2698898 0-.4830704-.1375122-.9458389-.4124908-1.3882599-.2750244-.4424133-.6552963-.7700195-1.1407585-.9828949-.3677216-.1611862-.8275604-.2607956-1.3777466-.2998962v-1.3099594h-1.3808517v1.2905884h-.6982918v-1.2905884h-1.3808098v1.2905884h-.5848045v-.0032349h-1.5442085v1.2376633h1.0872498v8.0421753h-1.0872498v1.2376175h1.0872498v.0035477h1.0417633v1.2928238h1.3808098v-1.2928238h.6982918v1.2928238h1.3808517v-1.3044435c.4594841-.0222473.8616066-.0768661 1.2055664-.1641541.461525-.1172104.8453865-.2905884 1.1514854-.5201721.3060989-.2295914.5631714-.5560379.7712631-.9793091.2080383-.4232635.312088-.8812408.312088-1.3738861 0-.6122055-.1709824-1.1431503-.5129929-1.5927505zm-6.0372849-4.6347122h2.102108c.755703 0 1.2889977.0490341 1.5999336.1470871.3108444.0980606.5500069.2798157.7173996.5452652.1674347.2654572.251133.5727539.251133.9219437 0 .3682556-.0896797.6744003-.269043.9183044-.1793594.2439117-.4460106.4185257-.7999878.5237656-.2678452.0813065-.7102203.1219559-1.3272552.1219559h-2.2742882zm4.9001618 7.1134948c-.13871.2558746-.3156776.450798-.5309486.5847168-.2152214.1339264-.4830666.2295914-.8034897.2869568-.181797.0335083-.4974747.0502701-.9470329.0502701h-.8896675-.6982918-1.0307312v-3.6159515h2.432148c.6696129 0 1.18256.0586014 1.5389328.1757736.3563309.1171646.634903.3204651.8358078.6098099.2008629.2893829.3013191.6301956.3013191 1.0223923 0 .3347854-.069336.6301574-.208046.886032z" fill="#fcd462"/><path d="m93.842453 50.4859352c.0743408-.5652466.1260986-1.1375122.1260986-1.7230835 0-7.2385254-5.8679199-13.1065063-13.1065674-13.1065063-7.2384033 0-13.1064453 5.867981-13.1064453 13.1065063 0 .5855713.0517578 1.1578369.1262207 1.7230835z" fill="#fcd462"/><g fill="#f7be56"><path d="m90.0414276 50.4859352c.1043701-.5591431.1652832-1.133667.1652832-1.7230835 0-5.1609497-4.1835938-9.3447266-9.3447266-9.3447266-5.1608887 0-9.3446045 4.1837769-9.3446045 9.3447266 0 .5894165.0610352 1.1639404.1654053 1.7230835z"/><path d="m80.443443 36.699764h.837288v1.702199h-.837288z"/><path d="m91.655426 47.911751h.837288v1.702199h-.837288z" transform="matrix(0 1 -1 0 140.837 -43.311)"/><path d="m69.231453 47.911751h.837288v1.702199h-.837288z" transform="matrix(0 1 -1 0 118.413 -20.887)"/><path d="m88.371513 39.983681h.837288v1.702199h-.837288z" transform="matrix(.707 .707 -.707 .707 54.881 -50.824)"/><path d="m72.515366 39.983681h.837288v1.702199h-.837288z" transform="matrix(-.707 .707 -.707 -.707 153.381 18.137)"/><path d="m76.152802 37.553227h.837288v1.702199h-.837288z" transform="matrix(.924 -.383 .383 .924 -8.868 32.226)"/><path d="m90.801964 43.621109h.837288v1.702199h-.837288z" transform="matrix(.383 .924 -.924 .383 97.399 -56.823)"/><path d="m84.734078 37.553227h.837288v1.702199h-.837288z" transform="matrix(.924 .383 -.383 .924 21.179 -29.663)"/><path d="m70.084915 43.621109h.837288v1.702199h-.837288z" transform="matrix(-.383 .924 -.924 -.383 138.571 -3.646)"/></g><path d="m78.2543182 50.4859352h1.3918457v-1.4958496h2.4321289c.6696777 0 1.1826172.0585938 1.5390625.1757812.3562012.1171875.6347656.3204346.8356934.6098022.1439209.2072144.2177734.4503174.2585449.7102661h1.4624023c-.0495605-.4810181-.2086182-.9100342-.4904785-1.2806396-.342041-.449585-.8310547-.7675781-1.4671631-.9541626.4925537-.2439575.8609619-.5643921 1.1048584-.9613647s.3658447-.8202515.3658447-1.2698975c0-.4830933-.1375732-.9458618-.4124756-1.3882446-.2750244-.4424438-.6552734-.7700195-1.1407471-.9829102-.3677979-.1611938-.8275146-.2608032-1.3778076-.2999268v-1.3099365h-1.3808594v1.2905884h-.6982422v-1.2905884h-1.3808594v1.2905884h-.5847168v-.0032349h-1.5441893v1.2376709h1.0871582zm1.3918457-5.9153442h2.1021729c.7557373 0 1.2889404.0490723 1.5999756.1470947.310791.0980835.5499268.2798462.7172852.5452881.1674805.2654419.2512207.5727539.2512207.921936 0 .3682251-.0897217.6743774-.269043.9182739-.1794434.2439575-.4460449.4185791-.8000488.5238037-.2678223.0812988-.7102051.1219482-1.3271484.1219482h-2.2744141v-3.1783446z" fill="#edb151"/><path d="m77.8533173 50.4859352h1.3918457v-1.4958496h2.4321289c.6695557 0 1.1824951.0585938 1.5389404.1757812.3563232.1171875.6348877.3204346.8358154.6098022.1439209.2072144.2176514.4503174.2584229.7102661h1.4624023c-.0495605-.4810181-.2084961-.9100342-.4904785-1.2806396-.3419189-.449585-.8310547-.7675781-1.4671631-.9541626.4926758-.2439575.8609619-.5643921 1.1048584-.9613647s.3659668-.8202515.3659668-1.2698975c0-.4830933-.1375732-.9458618-.4125977-1.3882446-.2749023-.4424438-.6552734-.7700195-1.140625-.9829102-.3677979-.1611938-.8276367-.2608032-1.3778076-.2999268v-1.3099365h-1.3808594v1.2905884h-.6983643v-1.2905884h-1.3807373v1.2905884h-.5848389v-.0032349h-1.5441893v1.2376709h1.0872803zm1.3918457-5.9153442h2.1020508c.7557373 0 1.2889404.0490723 1.5999756.1470947.310791.0980835.5500488.2798462.7174072.5452881s.2510986.5727539.2510986.921936c0 .3682251-.0895996.6743774-.269043.9182739-.1793213.2439575-.4460449.4185791-.8000488.5238037-.2678223.0812988-.7102051.1219482-1.3271484.1219482h-2.274292z" fill="#fcd462"/></svg>