<svg enable-background="new 0 0 140 140" height="512" viewBox="0 0 140 140" width="512" xmlns="http://www.w3.org/2000/svg"><circle cx="70" cy="70" fill="#45b39c" r="64"/><path d="m107.2040482 34.1716194-16.5 4.6101074.4100342 1.4599609-1.7900391.5.4400024 1.6000977c-2.2199707.8898926-4.7399902 1.3898926-7.2599487 1.1298828-16.1700439-1.7299805-17.3500366-.8798828-18.4100342-.3300781l-14.9299889 7.7099609s-2.8800049 1.0102539-3.710022 2c-.4400024.4702148-.4499512 1.2202148-.0099487 1.7001953h-.0100098l.0599976.0600586s0 .0097656.0100098.0097656l13.8800049 13.8701135c-.0400391.3500977-.0700073.7099609-.0700073 1.0800781 0 2.2397461.7999878 4.2998047 2.1199951 5.8898926.3299561.3898926.6900024.7399902 1.0799561 1.0800781l5.7800255 5.7800293c-4.3599815 1.079834-6.4299889 1.8999023-8.6899986.2797852-2.3099976-1.6499023-7.3699951-5.2797852-13.8499756-1.9799805-.1900024.1000977-.3600464.2001953-.5500488.2900391l-.8599854-.8598633-.9699707.2700195-1.2300415-1.2299805-16.5000019 4.6098633 5.460022 19.5400391 30.147707 30.1477051c2.8619347.3913574 5.7788048.6105957 8.7482262.6105957 35.3461914 0 64.0000076-28.6538086 64.0000076-64 0-3.3237305-.2540283-6.5878868-.7424927-9.7748985z" opacity=".1"/><path d="m77.7308502 69.575592c0 5.0883484-4.1236343 9.2096939-9.2096939 9.2096939-2.8480988 0-5.394577-1.2916565-7.0822563-3.3223953-1.3285027-1.5955811-2.1274376-3.647049-2.1274376-5.8872986 0-5.0860596 4.1236343-9.2096977 9.2096939-9.2096977 2.2011185 0 4.2226486.773613 5.8067093 2.0652695 2.0767899 1.6853752 3.4029846 4.2594795 3.4029846 7.1444282z" fill="#f4c85b"/><ellipse cx="68.522" cy="69.577" fill="#dda345" rx="7.345" ry="7.345" transform="matrix(.987 -.16 .16 .987 -10.26 11.874)"/><ellipse cx="68.606" cy="69.549" fill="#f4c85b" rx="6.291" ry="6.291" transform="matrix(.987 -.16 .16 .987 -10.255 11.887)"/><path d="m71.3774719 69.9255905c-.1185532-.1567383-.269249-.2873306-.4480667-.3918152-.1346283-.0803833-.2853241-.1446686-.4520874-.1929016.3033905-.1486816.5284424-.3455887.6791382-.5887222.1486893-.2431107.2230301-.5023193.2230301-.7796021 0-.2953644-.0843964-.5786819-.2531738-.8499298-.1687851-.2712479-.4018555-.4721756-.6992264-.6027832-.2250443-.1004715-.5063477-.1607437-.8439102-.1848526v-.8037186h-.8479233v.7916641h-.4279861v-.7916641h-.8459015v.7916641h-.3596725v-.0020142h-.9463654v.7595062h.6670837v4.930809h-.6670837v.7595062h.6670837v.0020142h.6389542v.7936707h.8459015v-.7936707h.4279861v.7936707h.8479233v-.7996902c.2812958-.0140686.52845-.048233.739418-.102478.281311-.0703354.5184021-.1768188.7052689-.3174744.1868591-.1406479.3455887-.3415756.4721756-.6007767.1286011-.2591934.192894-.5404968.192894-.8418884-.0000001-.37574-.1064988-.7012405-.3154603-.9785232zm-3.7011108-2.8411484h1.2879486c.4641495 0 .7916641.0301437.9805374.0904236.1908875.0602722.3375626.170784.440033.3335342.102478.1627502.1547241.3516312.1547241.5666199 0 .2250443-.0542526.4119034-.1647644.5626068-.1105118.1486969-.273262.2571945-.4902649.3214874-.1647644.0502319-.4360199.0743484-.8137665.0743484h-1.3944473zm3.0038833 4.3621827c-.0843887.1567154-.1928864.2772827-.3255081.3576431-.1326065.0823898-.2953568.1406555-.4922638.1768188-.1125183.0201035-.3054199.0301437-.5806885.0301437h-1.605423v-2.2162552h1.4908905c.4098892 0 .7253494.036171.9443741.1064987.1305923.0441971.2431107.1064911.3415756.1868668.0642929.0542526.1205597.116539.1707916.1888733.1225586.1768188.184845.3857803.184845.6268997.0000001.2049485-.044197.3857804-.1285934.5425111z" fill="#cc903a"/><path d="m71.1886292 69.9255905c-.1185532-.1567383-.2692566-.2873306-.4480743-.3918152-.1346283-.0803833-.2853241-.1446686-.4520874-.1929016.3033905-.1486816.5284424-.3455887.6791458-.5887222.1486816-.2431107.2230225-.5023193.2230225-.7796021 0-.2953644-.0843964-.5786819-.2531738-.8499298-.1687851-.2712479-.4018555-.4721756-.6992264-.6027832-.2250366-.1004715-.5063477-.1607437-.8439026-.1848526v-.8037186h-.847931v.7916641h-.4279785v-.7916641h-.8459091v.7916641h-.3596649v-.0020142h-.946373v.7595062h.6670837v4.930809h-.6670837v.7595062h.6670837v.0020142h.6389542v.7936707h.8459091v-.7936707h.4279785v.7936707h.8479309v-.7996902c.2812881-.0140686.5284424-.048233.739418-.102478.2813034-.0703354.5183945-.1768188.7052612-.3174744.1868591-.1406479.3455887-.3415756.4721756-.6007767.1286011-.2591934.1929016-.5404968.1929016-.8418884.0000001-.37574-.1064987-.7012405-.3154601-.9785232zm-3.7011185-2.8411484h1.2879562c.4641418 0 .7916565.0301437.9805298.0904236.1908875.0602722.3375626.170784.4400406.3335342s.1547165.3516312.1547165.5666199c0 .2250443-.0542526.4119034-.1647644.5626068-.1105042.1486969-.273262.2571945-.4902649.3214874-.1647644.0502319-.4360123.0743484-.8137589.0743484h-1.394455v-1.9490203zm3.0038833 4.3621827c-.0843887.1567154-.1928787.2772827-.3255005.3576431-.1326065.0823898-.2953644.1406555-.4922714.1768188-.1125183.0201035-.3054123.0301437-.5806885.0301437h-1.605423v-2.2162552h1.4908905c.4098969 0 .7253571.036171.9443741.1064987.1305923.0441971.2431183.1064911.3415833.1868668.0642853.0542526.1205521.116539.170784.1888733.1225662.1768188.1848526.3857803.1848526.6268997 0 .2049485-.0441971.3857804-.1286011.5425111z" fill="#fcd462"/><path d="m92.5743484 82.6090088c-1.4624939-.8409424-3.2210999-.995079-4.8075409-.4214706l-16.9549713 6.1306458s4.8366547-2.1985092 4.8366547-3.8473206c0-1.6488876-2.638176-3.2977676-7.1450195-2.1985092-4.5068817 1.0992508-6.5954323 1.978653-8.9038353.3297729-2.3083687-1.64888-7.3648758-5.2762909-13.8503456-1.9785919-6.4855385 3.297699-11.6519012 9.2335434-11.6519012 9.2335434l5.5454254 8.6310883h3.4222527c2.7619247-2.570694 7.7313766-5.0775833 12.7469368-4.5432587 16.1720657 1.7228622 17.3456345.8725739 18.4067535.3248825l18.265831-9.4278183c.9205474-.4350892.9723663-1.7254792.0897597-2.2329636z" fill="#fcd462"/><g fill="#ebf0f3"><path d="m91.5670853 84.1010132c-.2661285-.0938339-.5586395-.0782013-.8132858.0434799l-2.8519897 1.362915c-.1439133.068718-.1505966.2711411-.0114822.349205l1.2588654.7069016s2.9035416-1.0227814 3.7197723-2.0033646z"/><path d="m74.5454254 84.5258102-.8413696-1.2127228c-.2081299-.3000565-.6029892-.4050369-.9326324-.2481003l-2.5537338 1.2155304c-.3966599.188797-.5447845.6780472-.319458 1.0551758l.7100143 1.1883469c.1932678.3234253.5975723.4517899.9419785.2989883l2.6850586-1.1911545c.4275817-.189659.5767745-.7217254.3101424-1.1060638z"/><path d="m29.854521 82.043648h17.131216v17.245131h-17.131216z" transform="matrix(.963 -.269 .269 .963 -22.985 13.686)"/></g><path d="m60.1612511 89.8768463v.251503c3.2661438-.0554276 7.4176979-.4429092 10.6505852-1.8101654-.0000001 0-4.3481675 1.2067795-10.6505852 1.5586624z" fill="#f7be56"/><path d="m28.060339 81.026123h17.131216v20.282991h-17.131216z" fill="#4d5c7d" transform="matrix(.963 -.269 .269 .963 -23.186 13.222)"/><path d="m45.7393608 54.8026543c1.4624901.8409348 3.221096.9950714 4.8075371.4214706l16.9549713-6.1306496s-4.8366547 2.1985092-4.8366547 3.8473244c0 1.64888 2.638176 3.2977638 7.1450272 2.1985092 4.5068741-1.0992546 6.5954285-1.9786606 8.9038315-.3297768 2.3083649 1.6488838 7.3648758 5.2762909 13.8503418 1.9785919 6.4855347-3.297699 11.6519012-9.2335396 11.6519012-9.2335396l-5.5454254-8.6310883h-3.4222488c-2.7619324 2.570694-7.7313766 5.0775757-12.7469406 4.5432549-16.1720657-1.7228622-17.3456345-.8725739-18.4067535-.3248825l-18.265831 9.4278145c-.9205437.435093-.9723664 1.725483-.0897561 2.2329713z" fill="#fcd462"/><g fill="#ebf0f3"><path d="m46.7466202 53.3106461c.2661324.0938301.5586433.0782013.8132896-.0434761l2.8519859-1.362915c.1439171-.0687218.1505966-.2711411.0114861-.3492126l-1.2588654-.7069016s-2.9035454 1.022789-3.7197723 2.0033684z"/><path d="m63.7682838 52.885849.8413658 1.212719c.2081375.3000603.6029892.4050407.9326324.2481003l2.5537338-1.2155228c.3966599-.188797.5447845-.6780548.319458-1.0551796l-.7100067-1.188343c-.1932755-.3234329-.59758-.4517899-.9419861-.2989883l-2.6850586 1.1911469c-.4275778.1896666-.5767745.7217291-.3101386 1.1060675z"/><path d="m91.327972 38.122883h17.131216v17.245131h-17.131216z" transform="matrix(-.963 .269 -.269 -.963 208.682 64.88)"/></g><path d="m78.1524582 47.5348167v-.2515068c-3.2661438.0554314-7.4177017.4429054-10.650589 1.8101654 0 0 4.3481674-1.2067794 10.650589-1.5586586z" fill="#f7be56"/><path d="m93.122154 36.102547h17.131216v20.282991h-17.131216z" fill="#4d5c7d" transform="matrix(-.963 .269 -.269 -.963 212.07 63.412)"/></svg>